<svg width="375" height="812" viewBox="0 0 375 812" fill="none" xmlns="http://www.w3.org/2000/svg">
<g clip-path="url(#clip0_2104_1772)">
<rect width="375" height="812" fill="#0D0D0D"/>
<path opacity="0.1" fill-rule="evenodd" clip-rule="evenodd" d="M160.711 -375.153C225.208 -447.876 237.809 -582.253 326.169 -600.646C413.69 -618.865 436.417 -499.7 493.165 -444.358C547.569 -391.303 641.317 -370.202 646.885 -287.881C652.757 -201.061 593.792 -105.764 520.361 -42.2695C453.929 15.1736 370.012 1.56535 290.026 20.6894C192.211 44.0765 81.5394 129.777 7.5069 80.3511C-67.8369 30.0501 -67.017 -95.2478 -33.3894 -195.229C-5.21663 -278.992 99.7794 -306.45 160.711 -375.153Z" fill="#539EA7"/>
<path opacity="0.1" fill-rule="evenodd" clip-rule="evenodd" d="M41.9399 851.59C-44.753 895.554 -177.937 873.693 -218.121 954.507C-257.923 1034.56 -148.406 1086.74 -109.251 1155.66C-71.7135 1221.73 -75.0565 1317.76 3.16628 1344.01C85.6648 1371.69 192.793 1338.8 272.823 1283.86C345.225 1234.15 353.326 1149.52 392.094 1076.99C439.504 988.296 550.452 902.953 521.399 818.812C491.832 733.181 370.416 702.224 265.177 709.418C177.009 715.446 123.841 810.057 41.9399 851.59Z" fill="#539EA7"/>
</g>
<defs>
<clipPath id="clip0_2104_1772">
<rect width="375" height="812" fill="white"/>
</clipPath>
</defs>
</svg>
