<svg width="375" height="812" viewBox="0 0 375 812" fill="none" xmlns="http://www.w3.org/2000/svg">
<g clip-path="url(#clip0_2104_1082)">
<rect width="375" height="812" fill="white"/>
<path opacity="0.1" fill-rule="evenodd" clip-rule="evenodd" d="M160.711 -375.153C225.208 -447.876 237.809 -582.253 326.169 -600.646C413.69 -618.865 436.417 -499.7 493.165 -444.358C547.569 -391.303 641.317 -370.202 646.885 -287.881C652.757 -201.061 593.792 -105.764 520.361 -42.2695C453.929 15.1736 370.012 1.56535 290.026 20.6894C192.211 44.0765 81.5394 129.777 7.5069 80.3511C-67.8369 30.0501 -67.017 -95.2478 -33.3894 -195.229C-5.21663 -278.992 99.7794 -306.45 160.711 -375.153Z" fill="#4B8E96"/>
<path opacity="0.1" fill-rule="evenodd" clip-rule="evenodd" d="M41.9399 921.9C-44.753 965.863 -177.937 944.002 -218.121 1024.82C-257.923 1104.86 -148.406 1157.05 -109.251 1225.97C-71.7135 1292.04 -75.0565 1388.07 3.16628 1414.32C85.6648 1442 192.793 1409.11 272.823 1354.16C345.225 1304.46 353.326 1219.83 392.094 1147.3C439.504 1058.61 550.452 973.262 521.399 889.121C491.832 803.491 370.416 772.533 265.177 779.728C177.009 785.755 123.841 880.366 41.9399 921.9Z" fill="#4B8E96"/>
</g>
<defs>
<clipPath id="clip0_2104_1082">
<rect width="375" height="812" fill="white"/>
</clipPath>
</defs>
</svg>
