<svg width="375" height="812" viewBox="0 0 375 812" fill="none" xmlns="http://www.w3.org/2000/svg">
<g clip-path="url(#clip0_2104_1748)">
<rect width="375" height="812" fill="#0D0D0D"/>
<path opacity="0.1" fill-rule="evenodd" clip-rule="evenodd" d="M277.206 -358.022C369.623 -388.15 448.443 -497.709 533.975 -468.898C618.695 -440.36 578.045 -326.06 599.02 -249.62C619.129 -176.338 689.338 -110.729 652.516 -36.8925C613.681 40.9798 514.622 93.3796 419.164 111.028C332.805 126.994 267.287 72.8204 188.611 48.8743C92.3965 19.5902 -46.4186 37.5648 -85.2968 -42.5114C-124.863 -124.006 -60.7984 -231.69 18.7695 -300.943C85.4304 -358.963 189.899 -329.56 277.206 -358.022Z" fill="#539EA7"/>
<path opacity="0.1" fill-rule="evenodd" clip-rule="evenodd" d="M101.794 730.978C9.3772 700.85 -69.4431 591.291 -154.975 620.102C-239.695 648.64 -199.045 762.94 -220.02 839.38C-240.129 912.662 -310.338 978.271 -273.516 1052.11C-234.681 1129.98 -135.622 1182.38 -40.1645 1200.03C46.1954 1215.99 111.713 1161.82 190.389 1137.87C286.603 1108.59 425.419 1126.56 464.297 1046.49C503.863 964.994 439.798 857.31 360.23 788.057C293.57 730.037 189.101 759.44 101.794 730.978Z" fill="#539EA7"/>
</g>
<defs>
<clipPath id="clip0_2104_1748">
<rect width="375" height="812" fill="white"/>
</clipPath>
</defs>
</svg>
