<svg width="38" height="30" viewBox="0 0 38 30" fill="none" xmlns="http://www.w3.org/2000/svg">
<path fill-rule="evenodd" clip-rule="evenodd" d="M6.19369 0H8.78835V1.84235H6.19369V0ZM18.5811 0H21.1757V1.84235H18.5811V0ZM0 1.92609H6.11836L6.15184 6.40636L8.87205 6.44823V1.92609H18.4974V6.44823H21.2594V1.92609H27.3694V7.53689H0V1.92609ZM0 10.3004H27.3694V11.7659L27.0597 11.7073C26.884 11.6654 26.2311 11.5984 25.6118 11.5398C24.7413 11.4645 24.1805 11.4645 23.1845 11.5398C22.4731 11.5984 21.4268 11.7324 20.866 11.8497C20.2969 11.9669 19.3762 12.2098 18.8154 12.394C18.2463 12.5782 17.2586 12.997 16.6142 13.3068C15.9697 13.625 15.0992 14.1107 14.6891 14.3871C14.279 14.6634 13.6345 15.1324 13.2662 15.4339C12.8979 15.727 12.1865 16.4053 11.6759 16.9329C11.1654 17.4605 10.5125 18.2309 10.228 18.6412C9.93502 19.0516 9.33239 19.9895 8.89716 20.7265C8.16061 21.9575 8.10202 22.0831 8.20246 22.2757C8.25268 22.3929 8.60421 22.9959 8.97248 23.6156C9.34076 24.2353 9.81784 24.989 10.0355 25.2905C10.2447 25.5919 10.705 26.1865 11.7178 27.384H0L0 10.3004ZM24.6492 14.2698C25.4778 14.295 26.4069 14.362 26.8672 14.4457C27.3025 14.5295 27.9804 14.6802 28.3738 14.7974C28.7672 14.9063 29.4619 15.1492 29.9222 15.3334C30.3826 15.5176 31.1024 15.8526 31.5125 16.0871C31.9226 16.3132 32.6257 16.757 33.0609 17.0669C33.4962 17.3767 34.2494 18.0215 34.7349 18.5073C35.2287 18.993 35.8397 19.6713 36.0908 20.0146C36.3503 20.358 36.7604 20.9609 36.9948 21.3545C37.3881 21.991 37.4216 22.0915 37.3296 22.2757C37.2793 22.3929 36.9445 22.9205 36.6014 23.4481C36.1159 24.1767 35.6891 24.6875 34.827 25.5417C34.1909 26.1781 33.3371 26.9235 32.8935 27.2417C32.4583 27.5432 31.6046 28.0456 31.0103 28.3471C30.4161 28.6402 29.5288 29.017 29.0434 29.1761C28.5579 29.3353 27.7879 29.5446 27.3276 29.6367C26.8672 29.7289 26.0386 29.8461 25.4862 29.8963C24.9338 29.9466 24.1219 29.9633 23.6867 29.9382C23.2515 29.9047 22.5149 29.8293 22.0546 29.754C21.5942 29.687 20.7824 29.5027 20.255 29.352C19.7277 29.2013 18.9326 28.9165 18.4974 28.7239C18.0621 28.5397 17.3591 28.188 16.949 27.9451C16.5388 27.7106 15.8944 27.2919 15.5261 27.0156C15.1578 26.7476 14.505 26.1781 14.0697 25.7594C13.6429 25.3407 13.0235 24.654 12.7054 24.2437C12.379 23.8333 11.9354 23.1801 11.7094 22.8033C11.2993 22.1082 11.2993 22.1082 11.4332 21.8402C11.5086 21.6895 11.8099 21.2038 12.1028 20.7683C12.3958 20.3329 12.9231 19.6294 13.2913 19.2191C13.6512 18.8087 14.3041 18.1639 14.7393 17.8038C15.1662 17.4353 15.8692 16.9161 16.2794 16.6482C16.6895 16.3802 17.4093 15.9698 17.8696 15.7521C18.33 15.526 19.0247 15.2329 19.4181 15.0905C19.8114 14.9565 20.4727 14.7556 20.8828 14.6551C21.2929 14.5546 21.996 14.4206 22.4312 14.3536C22.9418 14.2866 23.7369 14.2531 24.6492 14.2698ZM21.9709 16.0285C21.6444 16.1541 21.1255 16.4221 20.7991 16.6147C20.4727 16.8156 19.9872 17.2009 19.711 17.4688C19.4348 17.7452 19.0414 18.2058 18.8322 18.5073C18.6313 18.8087 18.3718 19.2609 18.263 19.5122C18.1542 19.7634 17.9868 20.2575 17.9031 20.6008C17.7943 21.0196 17.7441 21.522 17.7441 22.1082C17.7441 22.7112 17.7943 23.1969 17.9115 23.6575C18.0036 24.0259 18.2044 24.587 18.3635 24.9136C18.5225 25.2402 18.8657 25.7762 19.1419 26.1195C19.4097 26.4629 19.8533 26.9318 20.1295 27.1579C20.4057 27.3757 20.9749 27.7274 21.385 27.9284C21.7951 28.1294 22.3643 28.3555 22.6405 28.4308C22.9167 28.5062 23.5026 28.5816 23.9378 28.6151C24.3814 28.6402 25.0008 28.6234 25.3439 28.5648C25.6703 28.5146 26.2228 28.3806 26.5575 28.2633C26.884 28.1461 27.4196 27.8949 27.7461 27.7023C28.0725 27.5013 28.5914 27.0993 28.9095 26.7978C29.2275 26.4964 29.6377 26.0274 29.8218 25.751C30.0143 25.4747 30.2654 25.0225 30.3909 24.7461C30.5165 24.4698 30.6839 24.0008 30.7592 23.6993C30.8345 23.3979 30.9182 22.8703 30.9434 22.5269C30.9768 22.1668 30.9517 21.6141 30.8848 21.2289C30.8262 20.8604 30.6923 20.2994 30.5751 19.9728C30.4663 19.6462 30.2319 19.1437 30.0561 18.8422C29.8804 18.5408 29.5121 18.055 29.2443 17.7619C28.9681 17.4688 28.5245 17.0669 28.2483 16.8743C27.9721 16.6733 27.5033 16.3969 27.202 16.2462C26.9007 16.0955 26.3734 15.9028 26.0302 15.8107C25.6871 15.727 25.0259 15.6349 24.5655 15.6181C24.0466 15.593 23.5026 15.6265 23.1426 15.6935C22.8162 15.7605 22.2973 15.9112 21.9709 16.0285Z" fill="url(#paint0_linear_2104_1258)"/>
<defs>
<linearGradient id="paint0_linear_2104_1258" x1="18.6861" y1="0" x2="18.6861" y2="29.9498" gradientUnits="userSpaceOnUse">
<stop stop-color="#B77CFA"/>
<stop offset="1" stop-color="#9060F6"/>
</linearGradient>
</defs>
</svg>
