<svg width="30" height="30" viewBox="0 0 30 30" fill="none" xmlns="http://www.w3.org/2000/svg">
<path fill-rule="evenodd" clip-rule="evenodd" d="M10.668 0C11.2014 0 12.0997 0.168852 12.6331 0.393989C13.1665 0.619125 13.9245 1.12568 15.0194 2.25136L16.0862 1.26639C16.8442 0.534699 17.4618 0.225136 18.4444 0.112568C19.2866 0 20.1569 0.0562841 20.7746 0.281421C21.308 0.478415 22.066 0.844262 22.4309 1.09754C22.7959 1.35082 23.3574 2.05437 23.6662 2.6735C24.0592 3.43333 24.2557 4.30573 24.2277 5.34699C24.2277 6.19125 23.975 7.40136 23.7223 8.02049C23.4416 8.63961 22.8801 9.65273 22.459 10.2719C22.0379 10.891 20.9711 12.1011 20.1008 12.9453C19.2305 13.7896 17.7145 15.0279 15.0194 16.8852L14.0368 16.2661C13.5034 15.9284 12.4928 15.2249 11.819 14.662C11.1171 14.0992 9.88189 12.9453 9.06775 12.1011C8.2536 11.2568 7.1868 9.73715 6.68147 8.72404C5.97962 7.28879 5.7831 6.52896 5.7831 5.20628C5.7831 3.79918 5.8954 3.32076 6.56917 2.36393C7.01835 1.71667 7.88864 0.95683 8.53434 0.619125C9.15197 0.281421 10.1346 0.0281421 10.668 0ZM7.43946 3.09563C7.21487 3.57404 7.01835 4.53087 7.01835 5.29071C7.01835 6.19125 7.27102 7.14808 7.8325 8.30191C8.30975 9.23059 9.34849 10.6658 10.1626 11.5101C10.9768 12.3544 12.3805 13.5926 13.2788 14.268L14.879 15.4781C16.2547 14.7183 17.7145 13.48 19.0059 12.2418C20.6903 10.6377 21.6168 9.51201 22.2063 8.30191C22.7959 7.0918 23.0205 6.21939 23.0205 5.20628C23.0205 4.33388 22.7959 3.46147 22.459 2.87049C22.066 2.25136 21.5045 1.82923 20.578 1.49153C19.4832 1.12568 19.034 1.09754 18.1918 1.35082C17.5741 1.54781 16.8161 2.08251 16.4231 2.61721C16.0301 3.09563 15.5809 3.68661 15.4405 3.8836C15.2721 4.05246 15.0194 4.22131 14.879 4.22131C14.7387 4.22131 14.3456 3.77104 14.0368 3.23634C13.728 2.70164 13.1946 2.05437 12.8577 1.82923C12.4928 1.6041 11.7628 1.35082 11.2294 1.26639C10.5557 1.15382 9.85382 1.29453 9.06775 1.68852C8.33783 2.02623 7.69213 2.58907 7.43946 3.09563ZM2.97571 8.1612C3.2003 8.1612 3.73371 8.38633 4.21096 8.66775C4.66015 8.92103 5.19355 9.45573 5.36199 9.84972C5.58658 10.3844 5.55851 10.9191 5.22162 12.1011C4.91281 13.283 4.88474 13.7052 5.1374 13.8459C5.33392 13.9585 5.61466 14.071 5.75503 14.071C5.8954 14.071 7.32717 15.3656 8.8993 16.9415C10.4714 18.5456 11.9032 20.1779 12.0436 20.6281C12.212 21.0503 12.3524 22.7106 12.3524 24.3429C12.3524 27.1008 12.3805 27.2978 12.9139 27.2978C13.4192 27.2978 13.4753 27.4666 13.4192 28.6486C13.3631 29.3803 13.2227 29.9431 13.0542 29.915C12.9139 29.8869 12.7454 29.4647 12.6331 28.1421H4.77244V28.93C4.77244 29.3522 4.68822 29.7743 4.57592 29.8869C4.43555 30.0276 4.18289 29.9431 3.98637 29.7462C3.78985 29.5773 3.62141 29.127 3.64948 28.7893C3.64948 28.4235 3.70563 27.9451 3.78985 27.7199C3.87408 27.4666 4.26711 27.2978 4.77244 27.2978C5.2497 27.2978 5.61466 27.1571 5.61466 26.9601C5.61466 26.7631 5.16548 26.0877 4.604 25.4686C4.07059 24.8494 2.94764 23.5268 2.13349 22.5136C1.34743 21.5005 0.533282 20.3467 0.336765 19.9246C0.140247 19.4743 -0.00012207 17.8702 -0.00012207 16.1817C-0.00012207 13.4519 0.0560257 13.0861 0.870169 11.3412C1.3755 10.2719 1.93698 9.14617 2.16157 8.80846C2.38616 8.44262 2.75112 8.1612 2.97571 8.1612ZM1.12283 16.3224C1.12283 18.5456 1.23513 19.1647 1.71239 19.9809C2.04927 20.5156 3.3126 22.1478 4.51978 23.583C5.75503 24.9901 6.73761 26.3691 6.73761 26.5942C6.73761 26.9319 7.1868 27.0164 8.98353 27.0164H11.2294L11.0891 20.8251C6.5411 16.2661 5.2497 15.1967 4.88474 15.1967C4.57592 15.1967 4.18289 15.3656 3.98637 15.5626C3.78985 15.7314 3.64948 16.0691 3.64948 16.2661C3.64948 16.435 4.35133 17.3355 5.19355 18.2361C6.03577 19.1085 6.73761 20.0653 6.73761 20.3467C6.73761 20.6281 6.5411 20.8251 6.26036 20.8251C5.97962 20.8251 4.99703 20.0653 4.07059 19.1366C2.58268 17.6451 2.38616 17.3074 2.38616 16.3224C2.38616 15.5907 2.58268 15.0279 3.00379 14.5776C3.34067 14.2117 3.76178 13.1705 3.98637 12.2137C4.29518 10.694 4.29518 10.4126 3.93022 10.0186C3.70563 9.76529 3.39682 9.54016 3.22838 9.5683C3.08801 9.5683 2.52653 10.497 2.0212 11.6227C1.20706 13.4519 1.12283 13.9022 1.12283 16.3224ZM27.0912 8.24562C27.4842 8.27376 27.9896 8.97732 28.7756 10.5533C29.8144 12.6639 29.8986 13.0016 29.9828 15.6188C30.039 17.3074 29.9547 18.8833 29.7582 19.5587C29.5617 20.1779 28.8879 21.3317 28.2703 22.0915C27.6246 22.8795 26.5016 24.2022 25.7717 25.0464C25.0137 25.8907 24.4242 26.7631 24.4242 26.9601C24.4242 27.1571 24.7891 27.2978 25.2664 27.2978C26.0525 27.2978 26.1086 27.3822 26.1928 28.4516C26.2209 29.0707 26.1367 29.718 25.9682 29.8587C25.7998 29.9994 25.6033 30.0276 25.4629 29.8869C25.3506 29.7743 25.2664 29.3522 25.2664 28.1421H17.4057V28.9863C17.4057 29.4647 17.2934 29.8869 17.125 29.9713C16.9846 30.0557 16.7038 29.9431 16.5635 29.7743C16.395 29.5773 16.3108 28.9582 16.3389 28.4235C16.395 27.6355 16.5635 27.4104 17.0688 27.3822C17.6584 27.2978 17.6864 27.1852 17.6864 24.3429C17.6864 22.4292 17.8268 21.0503 18.0795 20.4874C18.3041 19.9809 19.7078 18.3486 21.2237 16.8571C22.7678 15.3374 24.2838 14.0429 24.6488 13.9585C25.2664 13.7896 25.2664 13.7896 24.8172 12.3262C24.3961 11.0317 24.3961 10.7221 24.733 9.87786C24.9576 9.3713 25.4348 8.75218 25.8279 8.55518C26.2209 8.33005 26.7824 8.18934 27.0912 8.24562ZM25.6594 10.9191C25.7436 11.1724 25.9402 11.9604 26.1367 12.6639C26.3332 13.3675 26.6982 14.1836 26.9789 14.4932C27.2596 14.8027 27.5684 15.3656 27.6527 15.7596C27.765 16.1535 27.7088 16.7727 27.5123 17.1667C27.3158 17.5606 26.5297 18.5456 25.7156 19.3617C24.9295 20.1779 24.0592 20.8251 23.8065 20.8251C23.5258 20.8251 23.3012 20.6 23.3012 20.3467C23.3012 20.0653 23.8627 19.2773 24.5926 18.5738C25.2945 17.8702 25.9963 17.0822 26.1367 16.8289C26.3051 16.5194 26.277 16.0973 26.1086 15.7596C25.9402 15.45 25.5471 15.1967 25.1822 15.1967C24.733 15.1967 23.6662 16.0691 21.7291 18.0109L18.9498 20.8251L18.8094 27.0164C22.1221 27.0164 23.0205 26.9038 23.0205 26.735C23.0205 26.5661 24.1715 25.1027 25.5752 23.4423C26.9789 21.7538 28.2984 19.9809 28.523 19.5024C28.7476 18.9396 28.916 17.5888 28.916 16.1254C28.916 13.874 28.8318 13.4519 27.9334 11.6227C27.4 10.497 26.8385 9.5683 26.6982 9.5683C26.5578 9.5683 26.2209 9.76529 25.9963 9.99043C25.7436 10.2156 25.6033 10.6377 25.6594 10.9191Z" fill="url(#paint0_linear_2104_1202)"/>
<path d="M7.43946 3.09563C7.21487 3.57404 7.01835 4.53087 7.01835 5.29071C7.01835 6.19125 7.27102 7.14808 7.8325 8.30191C8.30975 9.23059 9.34849 10.6658 10.1626 11.5101C10.9768 12.3544 12.3805 13.5926 13.2788 14.268L14.879 15.4781C16.2547 14.7183 17.7145 13.48 19.0059 12.2418C20.6903 10.6377 21.6168 9.51201 22.2063 8.30191C22.7959 7.0918 23.0205 6.21939 23.0205 5.20628C23.0205 4.33388 22.7959 3.46147 22.459 2.87049C22.066 2.25136 21.5045 1.82923 20.578 1.49153C19.4832 1.12568 19.034 1.09754 18.1918 1.35082C17.5741 1.54781 16.8161 2.08251 16.4231 2.61721C16.0301 3.09563 15.5809 3.68661 15.4405 3.8836C15.2721 4.05246 15.0194 4.22131 14.879 4.22131C14.7387 4.22131 14.3456 3.77104 14.0368 3.23634C13.728 2.70164 13.1946 2.05437 12.8577 1.82923C12.4928 1.6041 11.7628 1.35082 11.2294 1.26639C10.5557 1.15382 9.85382 1.29453 9.06775 1.68852C8.33783 2.02623 7.69213 2.58907 7.43946 3.09563Z" fill="url(#paint1_linear_2104_1202)"/>
<path d="M1.12283 16.3224C1.12283 18.5456 1.23513 19.1647 1.71239 19.9809C2.04927 20.5156 3.3126 22.1478 4.51978 23.583C5.75503 24.9901 6.73761 26.3691 6.73761 26.5942C6.73761 26.9319 7.1868 27.0164 8.98353 27.0164H11.2294L11.0891 20.8251C6.5411 16.2661 5.2497 15.1967 4.88474 15.1967C4.57592 15.1967 4.18289 15.3656 3.98637 15.5626C3.78985 15.7314 3.64948 16.0691 3.64948 16.2661C3.64948 16.435 4.35133 17.3355 5.19355 18.2361C6.03577 19.1085 6.73761 20.0653 6.73761 20.3467C6.73761 20.6281 6.5411 20.8251 6.26036 20.8251C5.97962 20.8251 4.99703 20.0653 4.07059 19.1366C2.58268 17.6451 2.38616 17.3074 2.38616 16.3224C2.38616 15.5907 2.58268 15.0279 3.00379 14.5776C3.34067 14.2117 3.76178 13.1705 3.98637 12.2137C4.29518 10.694 4.29518 10.4126 3.93022 10.0186C3.70563 9.76529 3.39682 9.54016 3.22838 9.5683C3.08801 9.5683 2.52653 10.497 2.0212 11.6227C1.20706 13.4519 1.12283 13.9022 1.12283 16.3224Z" fill="url(#paint2_linear_2104_1202)"/>
<path d="M25.6594 10.9191C25.7436 11.1724 25.9402 11.9604 26.1367 12.6639C26.3332 13.3675 26.6982 14.1836 26.9789 14.4932C27.2596 14.8027 27.5684 15.3656 27.6527 15.7596C27.765 16.1535 27.7088 16.7727 27.5123 17.1667C27.3158 17.5606 26.5297 18.5456 25.7156 19.3617C24.9295 20.1779 24.0592 20.8251 23.8065 20.8251C23.5258 20.8251 23.3012 20.6 23.3012 20.3467C23.3012 20.0653 23.8627 19.2773 24.5926 18.5738C25.2945 17.8702 25.9963 17.0822 26.1367 16.8289C26.3051 16.5194 26.277 16.0973 26.1086 15.7596C25.9402 15.45 25.5471 15.1967 25.1822 15.1967C24.733 15.1967 23.6662 16.0691 21.7291 18.0109L18.9498 20.8251L18.8094 27.0164C22.1221 27.0164 23.0205 26.9038 23.0205 26.735C23.0205 26.5661 24.1715 25.1027 25.5752 23.4423C26.9789 21.7538 28.2984 19.9809 28.523 19.5024C28.7476 18.9396 28.916 17.5888 28.916 16.1254C28.916 13.874 28.8318 13.4519 27.9334 11.6227C27.4 10.497 26.8385 9.5683 26.6982 9.5683C26.5578 9.5683 26.2209 9.76529 25.9963 9.99043C25.7436 10.2156 25.6033 10.6377 25.6594 10.9191Z" fill="url(#paint3_linear_2104_1202)"/>
<path d="M19.2307 20.4029L20.3537 19.221C20.9432 18.5456 21.4766 18.0109 21.5328 18.0109C21.5889 18.0109 21.617 18.039 21.617 18.0953C21.617 18.1234 21.0836 18.6581 19.2307 20.4029Z" fill="white" fill-opacity="0.55"/>
<path d="M9.26443 18.8551C9.18021 18.8551 8.30992 18.039 7.29926 17.0259C6.2886 16.0128 5.58675 15.1967 5.69904 15.1967C5.83941 15.1967 6.7097 16.0128 7.66422 17.0259C8.61873 18.039 9.34865 18.8551 9.26443 18.8551Z" fill="white" fill-opacity="0.55"/>
<path d="M21.4766 18.1516L22.5995 16.9415V16.9696C23.1891 16.2942 23.7225 15.7595 23.7786 15.7595C23.8348 15.7595 23.8629 15.7876 23.8629 15.8158C23.8629 15.8721 23.3295 16.4068 21.4766 18.1516Z" fill="white" fill-opacity="0.55"/>
<path d="M6.73773 19.981C6.65351 19.981 5.97973 19.3618 5.19367 18.5739C4.43567 17.7859 3.90227 17.1667 4.01456 17.1667C4.15493 17.1667 4.85678 17.814 5.55863 18.5739C6.28855 19.3618 6.82195 19.981 6.73773 19.981Z" fill="white" fill-opacity="0.55"/>
<path d="M5.55863 20.5438C5.50248 20.5438 4.91293 19.9528 4.21108 19.2211L2.94775 17.8703L4.2953 19.1367C5.02522 19.8402 5.61477 20.4312 5.61477 20.4594C5.61477 20.5157 5.5867 20.5438 5.55863 20.5438Z" fill="white" fill-opacity="0.55"/>
<path d="M10.3874 27.2134C9.85397 27.2697 8.84331 27.2697 8.14147 27.2134C7.43962 27.1571 7.8888 27.1008 9.12405 27.1008C10.3593 27.1008 10.9208 27.1571 10.3874 27.2134Z" fill="white" fill-opacity="0.55"/>
<path d="M22.5715 27.2134C22.2626 27.2697 21.6169 27.2697 21.1678 27.2134C20.7186 27.1571 20.9712 27.1008 21.7573 27.1008C22.5434 27.1008 22.9083 27.1571 22.5715 27.2134Z" fill="white" fill-opacity="0.55"/>
<path d="M23.1611 20.1217L24.5648 18.6583C25.3228 17.8422 25.9965 17.1667 26.0246 17.1667C26.0808 17.1667 26.1088 17.1949 26.1088 17.2512C26.1088 17.2793 25.4631 17.9547 23.1611 20.1217Z" fill="white" fill-opacity="0.55"/>
<path d="M20.2133 27.2135C19.9887 27.2697 19.5396 27.2697 19.2307 27.2135C18.9219 27.129 19.1184 27.0728 19.6518 27.0728C20.1853 27.0728 20.4379 27.129 20.2133 27.2135Z" fill="white" fill-opacity="0.55"/>
<path d="M18.7251 25.0464C18.6689 25.5811 18.6128 25.0746 18.6128 23.9208C18.6128 22.7669 18.6689 22.3167 18.7251 22.9358C18.7812 23.5549 18.7812 24.5117 18.7251 25.0464Z" fill="white" fill-opacity="0.55"/>
<path d="M11.4263 25.4685C11.3701 26.0877 11.314 25.6937 11.314 24.6243C11.314 23.5549 11.3701 23.0202 11.4263 23.4986C11.4824 23.977 11.4824 24.8494 11.4263 25.4685Z" fill="white" fill-opacity="0.55"/>
<path d="M29.1128 18.0109C29.0566 18.5456 29.0005 18.236 29.0005 17.3074C29.0005 16.3787 29.0566 15.9284 29.1128 16.3224C29.1689 16.7164 29.1689 17.4762 29.1128 18.0109Z" fill="white" fill-opacity="0.55"/>
<path d="M8.30986 5.26262C8.28178 4.05251 8.39408 3.79923 9.124 3.20825C9.60126 2.8424 10.247 2.53284 10.5838 2.53284C10.9488 2.53284 11.2295 2.70169 11.2295 2.87054C11.2295 3.06754 10.8365 3.43338 10.3312 3.65852C9.54511 4.02437 9.40474 4.2495 9.32052 5.20633C9.26437 6.02245 9.46089 6.69786 9.99429 7.59841C10.4996 8.49895 10.64 8.94923 10.4154 9.14622C10.2189 9.34321 9.96622 9.25879 9.68548 8.8648C9.43281 8.55524 9.03978 7.93611 8.78711 7.4577C8.53445 6.97928 8.30986 5.99431 8.30986 5.26262Z" fill="white" fill-opacity="0.55"/>
<defs>
<linearGradient id="paint0_linear_2104_1202" x1="14.9999" y1="0" x2="14.9999" y2="30" gradientUnits="userSpaceOnUse">
<stop stop-color="#F4667B"/>
<stop offset="1" stop-color="#EE5190"/>
</linearGradient>
<linearGradient id="paint1_linear_2104_1202" x1="14.9999" y1="0" x2="14.9999" y2="30" gradientUnits="userSpaceOnUse">
<stop stop-color="#F4667B"/>
<stop offset="1" stop-color="#EE5190"/>
</linearGradient>
<linearGradient id="paint2_linear_2104_1202" x1="14.9999" y1="0" x2="14.9999" y2="30" gradientUnits="userSpaceOnUse">
<stop stop-color="#F4667B"/>
<stop offset="1" stop-color="#EE5190"/>
</linearGradient>
<linearGradient id="paint3_linear_2104_1202" x1="14.9999" y1="0" x2="14.9999" y2="30" gradientUnits="userSpaceOnUse">
<stop stop-color="#F4667B"/>
<stop offset="1" stop-color="#EE5190"/>
</linearGradient>
</defs>
</svg>
