<svg width="15" height="18" viewBox="0 0 15 18" fill="none" xmlns="http://www.w3.org/2000/svg">
<path d="M7.5 13.5C6.99719 13.5001 6.51279 13.3108 6.14327 12.9698C5.77375 12.6289 5.54622 12.1612 5.506 11.66C4.17219 11.1879 3.04805 10.2597 2.33202 9.03936C1.616 7.81901 1.35412 6.38493 1.59263 4.99027C1.83113 3.59561 2.55467 2.33005 3.63554 1.41698C4.71641 0.503917 6.0851 0.00206045 7.5 6.3094e-08C9.00489 -0.000218052 10.4549 0.565087 11.5626 1.58383C12.6702 2.60256 13.3546 4.00034 13.48 5.5C13.4842 5.56505 13.4748 5.63026 13.4524 5.69148C13.43 5.7527 13.3952 5.8086 13.35 5.85562C13.3049 5.90264 13.2504 5.93976 13.1902 5.96461C13.1299 5.98947 13.0652 6.00152 13 6C12.8661 5.99664 12.7381 5.94361 12.6411 5.8512C12.5441 5.7588 12.4849 5.63362 12.475 5.5C12.3859 4.61584 12.0628 3.77138 11.539 3.05357C11.0151 2.33576 10.3094 1.77054 9.49453 1.41609C8.67964 1.06163 7.78501 0.930763 6.90274 1.03694C6.02046 1.14313 5.18243 1.48252 4.47491 2.0202C3.76739 2.55787 3.21594 3.2744 2.87735 4.096C2.53876 4.9176 2.42525 5.8146 2.54851 6.69465C2.67177 7.5747 3.02734 8.406 3.57863 9.10297C4.12991 9.79994 4.85699 10.3374 5.685 10.66C5.83566 10.3345 6.07111 10.0554 6.36667 9.85213C6.66224 9.64885 7.00703 9.5288 7.36493 9.50457C7.72283 9.48033 8.08067 9.55281 8.40094 9.71439C8.7212 9.87597 8.99212 10.1207 9.18529 10.423C9.37846 10.7253 9.48679 11.0739 9.49891 11.4324C9.51103 11.7909 9.4265 12.1461 9.25418 12.4607C9.08186 12.7754 8.82809 13.0379 8.51947 13.2207C8.21084 13.4035 7.85872 13.5 7.5 13.5ZM2.509 11H2.6C2.99 11.381 3.423 11.717 3.892 12H2.509C1.948 12 1.5 12.447 1.5 13C1.5 14.309 2.122 15.284 3.173 15.953C4.243 16.636 5.765 17 7.5 17C9.235 17 10.757 16.636 11.827 15.953C12.877 15.283 13.5 14.31 13.5 13C13.5 12.7348 13.3946 12.4804 13.2071 12.2929C13.0196 12.1054 12.7652 12 12.5 12H10.459C10.5149 11.669 10.5149 11.331 10.459 11H12.5C13.0304 11 13.5391 11.2107 13.9142 11.5858C14.2893 11.9609 14.5 12.4696 14.5 13C14.5 14.691 13.667 15.966 12.365 16.797C11.083 17.614 9.355 18 7.5 18C5.645 18 3.917 17.614 2.635 16.797C1.333 15.967 0.5 14.69 0.5 13C0.5 11.887 1.403 11 2.509 11ZM11.5 6C11.5002 6.67664 11.3288 7.34227 11.0017 7.93463C10.6747 8.52698 10.2027 9.02669 9.63 9.387C9.36304 9.11781 9.04747 8.90166 8.7 8.75C9.33168 8.47431 9.84917 7.98953 10.1655 7.37716C10.4817 6.7648 10.5775 6.06221 10.4367 5.38753C10.2959 4.71284 9.92708 4.10722 9.39225 3.6725C8.85742 3.23777 8.18922 3.00045 7.5 3.00045C6.81078 3.00045 6.14258 3.23777 5.60775 3.6725C5.07293 4.10722 4.7041 4.71284 4.56328 5.38753C4.42247 6.06221 4.51826 6.7648 4.83454 7.37716C5.15083 7.98953 5.66832 8.47431 6.3 8.75C5.95 8.903 5.635 9.12 5.37 9.387C4.61042 8.90932 4.03351 8.19012 3.732 7.345C3.57818 6.91327 3.49971 6.45831 3.5 6C3.5 4.93913 3.92143 3.92172 4.67157 3.17157C5.42172 2.42143 6.43913 2 7.5 2C8.56087 2 9.57828 2.42143 10.3284 3.17157C11.0786 3.92172 11.5 4.93913 11.5 6Z" fill="#93989D"/>
</svg>
