<svg width="38" height="38" viewBox="0 0 38 38" fill="none" xmlns="http://www.w3.org/2000/svg">
<path d="M1.1875 19C1.1875 22.5031 2.19687 25.7687 3.91875 28.5H34.0219C35.7437 25.7687 36.7531 22.5031 36.7531 19C36.7531 15.4969 35.7437 12.2313 34.0219 9.5H3.91875C2.19687 12.2313 1.1875 15.4969 1.1875 19Z" fill="#FFCE31"/>
<path d="M34.0812 9.5C30.9343 4.5125 25.3531 1.1875 19 1.1875C12.6468 1.1875 7.06558 4.5125 3.9187 9.5H34.0812ZM3.9187 28.5C7.06558 33.4875 12.6468 36.8125 19 36.8125C25.3531 36.8125 30.9343 33.4875 34.0812 28.5H3.9187Z" fill="#ED4C5C"/>
<path d="M5.4624 17.0406H7.3624V18.1094H5.4624V17.0406ZM5.4624 24.8782H7.42178V25.8875H5.4624V24.8782Z" fill="#C8B100"/>
<path d="M5.28442 23.2156C5.1063 23.3344 4.98755 23.4531 4.98755 23.5125C4.98755 23.5719 5.04692 23.6313 5.16567 23.6906C5.28442 23.75 5.40317 23.8688 5.3438 23.9875C5.46255 23.8688 5.52192 23.75 5.52192 23.6313C5.52192 23.4531 5.40317 23.275 5.28442 23.2156Z" fill="#ED4C5C"/>
<path d="M5.75928 18.1094H7.1249V24.8781H5.75928V18.1094Z" fill="white"/>
<path d="M8.55004 20.6031C8.25317 20.4844 7.71879 20.3656 7.12504 20.3656C6.94692 20.3656 6.70942 20.3656 6.47192 20.425C5.64067 20.5438 4.98754 20.9 5.04692 21.1375L4.75004 20.4844C4.69067 20.1875 5.40317 19.8312 6.29379 19.6531C6.59067 19.5937 6.88754 19.5938 7.12504 19.5938C7.71879 19.5938 8.25317 19.6531 8.55004 19.7719V20.6031Z" fill="#ED4C5C"/>
<path d="M5.75933 21.4938C5.40308 21.4938 5.1062 21.375 5.1062 21.1969C5.1062 21.0781 5.22495 20.9 5.46245 20.7812H5.8187L5.75933 21.4938ZM7.12495 20.9594C7.36245 21.0187 7.54058 21.0781 7.65933 21.1375C7.7187 21.1969 7.4812 21.4344 7.12495 21.6125V20.9594Z" fill="#ED4C5C"/>
<path d="M4.86869 22.8C4.80932 22.6813 5.22494 22.4438 5.75932 22.2656C5.99682 22.2063 6.17494 22.0875 6.47182 21.9688C7.18432 21.6719 7.77807 21.2563 7.65932 21.1375L7.77807 21.85C7.83744 21.9688 7.36244 22.325 6.64994 22.6813C6.41244 22.8 5.99682 22.9781 5.75932 23.0375C5.34369 23.1563 4.98744 23.3938 4.98744 23.4531L4.86869 22.8Z" fill="#ED4C5C"/>
<path d="M18.2281 17.0406H20.1281V18.1094H18.2281V17.0406ZM18.1687 24.8782H20.1281V25.8875H18.1687V24.8782Z" fill="#C8B100"/>
<path d="M20.3063 23.2156C20.4845 23.3344 20.6032 23.4531 20.6032 23.5125C20.6032 23.5719 20.5438 23.6313 20.4251 23.6906C20.3063 23.8094 20.1876 23.9875 20.247 24.0469C20.1282 23.9281 20.0688 23.8094 20.0688 23.6906C20.0688 23.4531 20.1876 23.275 20.3063 23.2156Z" fill="#ED4C5C"/>
<path d="M18.4656 18.1094H19.8312V24.8781H18.4656V18.1094Z" fill="white"/>
<path d="M17.0408 20.6031C17.3376 20.4844 17.872 20.3656 18.4658 20.3656C18.6439 20.3656 18.8814 20.3656 19.1189 20.425C19.9501 20.5438 20.6033 20.9 20.5439 21.1375L20.8408 20.425C20.9001 20.1281 20.1876 19.7719 19.297 19.5938H18.4658C17.872 19.5938 17.3376 19.6531 17.0408 19.7719V20.6031Z" fill="#ED4C5C"/>
<path d="M19.8315 21.4938C20.1877 21.4938 20.4846 21.375 20.4846 21.1969C20.4846 21.0781 20.3658 20.9 20.1283 20.7812H19.7721L19.8315 21.4938ZM18.4658 20.9594C18.2283 21.0187 18.0502 21.0781 17.9315 21.1375C17.8721 21.1969 18.1096 21.4344 18.4658 21.6125V20.9594Z" fill="#ED4C5C"/>
<path d="M20.722 22.8C20.7814 22.6812 20.3657 22.4437 19.8314 22.2656C19.5939 22.2062 19.4157 22.0875 19.1188 21.9687C18.4063 21.6719 17.8126 21.2562 17.9313 21.1375L17.8126 21.85C17.7532 21.9687 18.2282 22.325 18.9407 22.6812C19.1782 22.8 19.5939 22.9781 19.8314 23.0375C20.247 23.1562 20.6032 23.4531 20.5438 23.5125L20.722 22.8ZM12.7657 13.2406C13.8938 13.2406 16.2095 13.4781 17.0407 14.3094C16.1501 16.4469 14.7251 15.5562 12.7657 15.5562C10.8657 15.5562 9.38135 16.4469 8.49072 14.3094C9.32197 13.4781 11.5782 13.2406 12.7657 13.2406Z" fill="#ED4C5C"/>
<path d="M15.6751 15.6156C14.9626 15.2 13.8938 15.1406 12.7657 15.1406C11.6376 15.1406 10.5688 15.2594 9.85635 15.6156L10.0938 16.625C10.747 16.8031 11.697 16.9219 12.7657 16.9219C13.8345 16.9219 14.7251 16.8031 15.4376 16.625L15.6751 15.6156ZM16.6845 13.0625C16.447 12.8844 15.972 12.7062 15.5563 12.7062C15.3782 12.7062 15.2001 12.7063 15.022 12.7656C15.022 12.7656 14.6657 12.2906 13.8345 12.2906C13.5376 12.2906 13.3001 12.35 13.0626 12.4688V12.4094C13.0032 12.2906 12.8845 12.1719 12.7657 12.1719C12.647 12.1719 12.4688 12.35 12.4688 12.4688V12.5281C12.2313 12.4094 11.9938 12.35 11.697 12.35C10.8657 12.35 10.5095 12.8844 10.5095 12.825C10.3313 12.7656 10.1532 12.7656 9.9751 12.7656C7.24385 12.7656 8.60947 14.6063 8.60947 14.6063L8.90635 14.25C8.25322 13.4188 8.84697 12.9437 10.0345 12.9437C10.2126 12.9437 10.3313 12.9437 10.4501 13.0031C10.0345 13.5969 10.8063 14.1312 10.8063 14.1312L10.9845 13.8344C10.5688 13.5375 10.5095 12.5281 11.697 12.5281C11.9938 12.5281 12.2313 12.5875 12.4688 12.7656C12.4688 12.825 12.4095 13.6563 12.3501 13.775L12.8251 14.1906L13.3001 13.775C13.2407 13.5969 13.1813 12.825 13.1813 12.7656C13.3595 12.6469 13.6563 12.5281 13.9532 12.5281C15.2001 12.5281 15.2001 13.5375 14.6657 13.8344L14.8438 14.1312C14.8438 14.1312 15.497 13.5969 15.2001 13.0031C15.3188 13.0031 15.497 12.9437 15.6157 12.9437C17.0407 12.9437 17.1001 14.0125 16.7438 14.25L16.9813 14.6063C16.8626 14.6063 17.5157 13.775 16.6845 13.0625Z" fill="#C8B100"/>
<path d="M12.4094 11.9344C12.4094 11.7563 12.5875 11.5781 12.7657 11.5781C13.0032 11.5781 13.1219 11.7563 13.1219 11.9344C13.1219 12.1125 12.9438 12.2906 12.7657 12.2906C12.5875 12.2906 12.4094 12.1125 12.4094 11.9344Z" fill="#005BBF"/>
<path d="M12.6469 10.925V11.1031H12.4688V11.2812H12.6469V11.875H12.4094V12.0531H13.1219L13.1813 11.9344L13.1219 11.875H12.8844V11.2812H13.0625V11.1031H12.8844V10.925H12.6469Z" fill="#C8B100"/>
<path d="M12.7657 16.8031C11.8157 16.8031 10.9844 16.6844 10.3313 16.5062C10.9844 16.3281 11.8157 16.2094 12.7657 16.2094C13.7157 16.2094 14.5469 16.3281 15.2 16.5062C14.6063 16.6844 13.7157 16.8031 12.7657 16.8031Z" fill="#ED4C5C"/>
<path d="M12.825 27.075C11.6969 27.075 10.6282 26.7781 9.67817 26.3625C8.96567 26.0063 8.55005 25.3531 8.55005 24.5813V21.7313H17.1V24.5813C17.1 25.3531 16.625 26.0656 15.9719 26.3625C15.0219 26.8375 13.9532 27.075 12.825 27.075ZM12.7657 16.9813H17.0407V21.7313H12.7657V16.9813Z" fill="white"/>
<path d="M12.825 24.5813C12.825 25.7094 11.875 26.6 10.6875 26.6C9.50005 26.6 8.55005 25.7094 8.55005 24.5813V21.7313H12.825V24.5813Z" fill="#ED4C5C"/>
<path d="M9.44072 26.2437C9.55947 26.3031 9.7376 26.4219 9.9751 26.4812V21.6125H9.5001L9.44072 26.2437ZM8.49072 24.5219C8.49072 25.1156 8.72822 25.5906 8.96572 25.8281V21.6125H8.49072V24.5219Z" fill="#C8B100"/>
<path d="M10.3906 26.6H10.8656V21.6125H10.3906V26.6Z" fill="#C7B500"/>
<path d="M11.3406 26.4812C11.5187 26.4219 11.7562 26.3031 11.875 26.2437V21.6125H11.4L11.3406 26.4812Z" fill="#C8B100"/>
<path d="M8.49072 16.9813H12.7657V21.7313H8.49072V16.9813Z" fill="#ED4C5C"/>
<path d="M12.3501 25.8281C12.5876 25.65 12.7657 25.2344 12.8251 24.7594V21.6719H12.3501V25.8281Z" fill="#C8B100"/>
<path d="M17.1 21.7313V24.5813C17.1 25.7094 16.15 26.6 14.9625 26.6C13.775 26.6 12.825 25.7094 12.825 24.5813V21.7313H17.1ZM15.5563 17.8125C15.7344 18.1688 15.7344 19.0594 15.2 18.8813C15.3188 18.9407 15.3782 19.3563 15.5563 19.5938C15.8532 19.95 16.2094 19.6532 16.15 19.2375C16.0313 18.5844 16.0907 18.1688 16.2094 17.5157C16.2094 17.575 16.5063 17.575 16.625 17.4563C16.5657 17.6344 16.5063 17.8719 16.625 17.8719C16.5063 18.05 16.2094 18.3469 16.15 18.525C16.0907 18.9407 16.7438 19.7125 16.0313 19.8907C15.5563 20.0094 15.8532 20.3657 16.0313 20.5438C16.0313 20.5438 15.7938 21.3157 15.9125 21.2563C15.4375 21.4344 15.5563 21.0188 15.5563 21.0188C15.7938 20.3063 15.1407 20.2469 15.2 20.1282C14.6063 20.0688 15.2594 20.6625 14.725 20.6625C14.6063 20.6625 14.3688 20.7813 14.3688 20.7813C13.7157 20.7219 14.0719 20.1282 14.3094 20.1875C14.4875 20.2469 14.6657 20.5438 14.6657 20.1282C14.6657 20.1282 14.3688 19.6532 15.1407 19.6532C14.8438 19.6532 14.6657 19.4157 14.5469 19.1188C14.4282 19.1782 14.25 19.475 13.5969 19.5344C13.5969 19.5344 13.4188 18.8813 13.5969 19C13.8344 19.1188 13.9532 19.1188 14.1907 18.8813C14.0719 18.7032 13.3594 18.4657 13.4782 18.05C13.4782 17.9313 13.8344 17.7532 13.8344 17.7532C13.775 18.05 13.9532 18.3469 14.3094 18.3469C14.7844 18.4063 14.6063 18.2282 14.6657 18.1094C14.725 17.9907 15.0813 18.1688 14.9625 17.8719C14.9625 17.8125 14.5469 17.7532 14.6657 17.575C14.9032 17.2782 15.2594 17.5157 15.5563 17.8125ZM12.825 26.4813L12.7063 26.1844L12.825 25.8282L12.9438 26.1844L12.825 26.4813Z" fill="#ED4C5C"/>
<path d="M9.79692 17.9906V18.2875H9.91567V18.525H9.6188V19.1188H9.79692V20.425H9.44067V21.0781H11.875V20.425H11.5782V19.1188H11.6969V18.525H11.4V18.2875H11.5782V17.9906H10.9844V18.2875H11.1032V18.525H10.8063V17.8125H10.9844V17.5156H10.3313V17.8125H10.5094V18.525H10.2125V18.2875H10.3313V17.9906H9.79692ZM16.5063 25.2937V22.325H13.4188V25.2937L14.8438 25.9469H15.0219L16.5063 25.2937ZM14.8438 22.5625V23.5719L13.8344 22.5625H14.8438ZM13.5969 22.6219L14.7844 23.8094L13.5969 24.9969V22.6219ZM13.7157 25.2344L14.8438 24.1062V25.7688L13.7157 25.2344ZM15.0219 25.7094V24.0469L16.15 25.175L15.0219 25.7094ZM16.2688 24.9969L15.0813 23.8094L16.2688 22.6219V24.9969ZM15.0219 22.5625H16.0313L15.0219 23.5719V22.5625Z" fill="#C8B100"/>
<path d="M11.3999 21.6719C11.3999 20.7812 11.9937 20.1281 12.7655 20.1281C13.5374 20.1281 14.1312 20.8406 14.1312 21.6719C14.1312 22.5031 13.5374 23.2156 12.7655 23.2156C11.9937 23.2156 11.3999 22.5625 11.3999 21.6719Z" fill="#ED4C5C"/>
<path d="M11.8157 21.6719C11.8157 21.0188 12.2313 20.5438 12.7657 20.5438C13.3 20.5438 13.7157 21.0781 13.7157 21.6719C13.7157 22.325 13.3 22.8 12.7657 22.8C12.2907 22.8594 11.8157 22.325 11.8157 21.6719Z" fill="#005BBF"/>
<path d="M12.35 20.9L12.1125 21.5531L12.2907 21.6125L12.1719 21.85H12.5282L12.4094 21.6125L12.5875 21.5531L12.35 20.9ZM13.2407 20.9L13.0032 21.5531L13.1813 21.6125L13.0625 21.85H13.4188L13.3594 21.6125L13.5375 21.5531L13.2407 20.9ZM12.825 21.6719L12.5282 22.325L12.7063 22.3844L12.6469 22.6219H12.9438L12.8844 22.3844L13.0625 22.325L12.825 21.6719Z" fill="#C8B100"/>
</svg>
