<svg width="36" height="36" viewBox="0 0 36 36" fill="none" xmlns="http://www.w3.org/2000/svg">
<g clip-path="url(#clip0_2104_1113)">
<mask id="mask0_2104_1113" style="mask-type:luminance" maskUnits="userSpaceOnUse" x="0" y="0" width="36" height="36">
<path d="M18 36C27.9411 36 36 27.9411 36 18C36 8.05887 27.9411 0 18 0C8.05887 0 0 8.05887 0 18C0 27.9411 8.05887 36 18 36Z" fill="white"/>
</mask>
<g mask="url(#mask0_2104_1113)">
<path d="M0 0L0.5625 1.54688L0 3.16406V4.78125L2.25 8.57812L0 12.375V14.625L2.25 18L0 21.375V23.625L2.25 27.4219L0 31.2188V36L1.54688 35.4375L3.16406 36H4.78125L8.57812 33.75L12.375 36H14.625L18 33.75L21.375 36H23.625L27.4219 33.75L31.2188 36H36L35.4375 34.4531L36 32.8359V31.2188L33.75 27.4219L36 23.625V21.375L33.75 18L36 14.625V12.375L33.75 8.57812L36 4.78125V0L34.4531 0.5625L32.8359 0H31.2188L27.4219 2.25L23.625 0H21.375L18 2.25L14.625 0H12.375L8.57812 2.25L4.78125 0H0Z" fill="#EEEEEE"/>
<path d="M23.625 0V7.59375L31.2188 0H23.625ZM36 4.78125L28.4062 12.375H36V4.78125ZM0 12.375H7.59375L0 4.78125V12.375ZM4.78125 0L12.375 7.59375V0H4.78125ZM12.375 36V28.4062L4.78125 36H12.375ZM0 31.2188L7.59375 23.625H0V31.2188ZM36 23.625H28.4062L36 31.2188V23.625ZM31.2188 36L23.625 28.4062V36H31.2188Z" fill="#0052B4"/>
<path d="M0 0V3.16406L9.21094 12.375H12.375L0 0ZM14.625 0V14.625H0V21.375H14.625V36H21.375V21.375H36V14.625H21.375V0H14.625ZM32.8359 0L23.625 9.21094V12.375L36 0H32.8359ZM12.375 23.625L0 36H3.16406L12.375 26.7891V23.625ZM23.625 23.625L36 36V32.8359L26.7891 23.625H23.625Z" fill="#D80027"/>
</g>
</g>
<defs>
<clipPath id="clip0_2104_1113">
<rect width="36" height="36" fill="white"/>
</clipPath>
</defs>
</svg>
