<svg width="26" height="26" viewBox="0 0 26 26" fill="none" xmlns="http://www.w3.org/2000/svg">
<rect x="0.5" y="0.5" width="25" height="25" rx="12.5" fill="#303030"/>
<rect x="0.5" y="0.5" width="25" height="25" rx="12.5" stroke="#101010"/>
<path d="M15.8143 12.3125L14.9893 13.1559C14.3293 13.8159 13.9168 14.375 13.9168 15.75H12.0835V15.2917C12.0835 14.2742 12.496 13.3575 13.156 12.6975L14.2927 11.5425C14.6318 11.2125 14.8335 10.7542 14.8335 10.25C14.8335 9.76381 14.6403 9.29749 14.2965 8.95368C13.9527 8.60986 13.4864 8.41671 13.0002 8.41671C12.5139 8.41671 12.0476 8.60986 11.7038 8.95368C11.36 9.29749 11.1668 9.76381 11.1668 10.25H9.3335C9.3335 9.27758 9.7198 8.34495 10.4074 7.65732C11.0951 6.96968 12.0277 6.58337 13.0002 6.58337C13.9726 6.58337 14.9053 6.96968 15.5929 7.65732C16.2805 8.34495 16.6668 9.27758 16.6668 10.25C16.6655 11.023 16.3591 11.7642 15.8143 12.3125Z" fill="#539EA7"/>
<path d="M12.0835 19.4167V17.5834H13.9168V19.4167H13.0002H12.0835Z" fill="#539EA7"/>
</svg>
