<svg width="26" height="26" viewBox="0 0 26 26" fill="none" xmlns="http://www.w3.org/2000/svg">
<rect x="0.5" y="0.5" width="25" height="25" rx="12.5" fill="#DBDBDB"/>
<rect x="0.5" y="0.5" width="25" height="25" rx="12.5" stroke="#FFF8F8"/>
<path d="M15.8142 12.3125L14.9892 13.1559C14.3292 13.8159 13.9167 14.375 13.9167 15.75H12.0834V15.2917C12.0834 14.2742 12.4959 13.3575 13.1559 12.6975L14.2925 11.5425C14.6317 11.2125 14.8334 10.7542 14.8334 10.25C14.8334 9.76381 14.6402 9.29749 14.2964 8.95368C13.9526 8.60986 13.4863 8.41671 13 8.41671C12.5138 8.41671 12.0475 8.60986 11.7037 8.95368C11.3599 9.29749 11.1667 9.76381 11.1667 10.25H9.33337C9.33337 9.27758 9.71968 8.34495 10.4073 7.65732C11.0949 6.96968 12.0276 6.58337 13 6.58337C13.9725 6.58337 14.9051 6.96968 15.5928 7.65732C16.2804 8.34495 16.6667 9.27758 16.6667 10.25C16.6654 11.023 16.359 11.7642 15.8142 12.3125Z" fill="#4B8E96"/>
<path d="M12.0834 19.4167V17.5834H13.9167V19.4167H13H12.0834Z" fill="#4B8E96"/>
</svg>
