<svg width="30" height="32" viewBox="0 0 30 32" fill="none" xmlns="http://www.w3.org/2000/svg">
<path fill-rule="evenodd" clip-rule="evenodd" d="M8.02982 0H14.5108C18.4365 0 21.1845 0.0285714 21.4843 0.0714286C21.7627 0.114286 22.1624 0.228571 22.3765 0.335714C22.5906 0.442857 22.919 0.685714 23.1117 0.871429C23.2973 1.05714 23.5542 1.42857 23.9111 2.17857L23.9539 7.96429L9.34314 22.6071L8.5009 24.75C7.92275 26.2143 7.67293 26.9429 7.70148 27.0571C7.7229 27.1429 7.81569 27.2786 7.90134 27.3571C7.99413 27.4357 8.15116 27.5 8.25822 27.5C8.37242 27.5 9.40024 27.1286 12.6336 25.8357L23.9468 14.5357L23.9111 29.8214L23.6756 30.3C23.5542 30.5714 23.2973 30.9429 23.1045 31.1286C22.919 31.3143 22.5835 31.5571 22.3551 31.6643C22.1338 31.7714 21.7341 31.8857 21.4629 31.9286C21.1702 31.9714 17.4872 32 11.9912 32C7.04482 32 2.80505 31.9714 2.56951 31.9357C2.33397 31.9071 1.95567 31.7929 1.72727 31.6857C1.506 31.5857 1.14912 31.3429 0.942126 31.15C0.742272 30.9571 0.485317 30.6286 0.378252 30.4214C0.271187 30.2071 0.149847 29.8571 0.107021 29.6429C0.0570575 29.3857 0.0356445 25.4929 0.0356445 7.42857H6.28109L6.70935 7.22857C6.98058 7.1 7.24467 6.9 7.44453 6.67143C7.61583 6.47857 7.81569 6.15 7.8942 5.94286C8.02268 5.6 8.02982 5.37143 8.02982 2.78571V0ZM8.75786 6.66429C8.65079 6.84286 8.64365 6.87143 8.74358 7.05C8.80782 7.16429 8.9363 7.29286 9.02909 7.33571C9.1647 7.40714 10.528 7.42857 14.8962 7.42857C18.8505 7.42857 20.6492 7.40714 20.7848 7.35C20.899 7.30714 21.0203 7.22143 21.0703 7.15714C21.1203 7.08571 21.156 6.95714 21.156 6.85714C21.156 6.75714 21.1203 6.62857 21.0703 6.55714C21.0203 6.49286 20.899 6.40714 20.7848 6.36429C20.6492 6.30714 18.8505 6.28571 14.8962 6.28571C10.478 6.28571 9.17184 6.30714 9.04336 6.37857C8.95771 6.42857 8.82923 6.55714 8.75786 6.66429ZM4.18976 11.2357C4.08269 11.4143 4.07556 11.4429 4.17548 11.6214C4.23972 11.7357 4.3682 11.8643 4.46099 11.9071C4.5966 11.9786 6.0741 12 10.8992 12C15.2674 12 17.2231 11.9786 17.3587 11.9214C17.4729 11.8786 17.5943 11.7929 17.6442 11.7286C17.6942 11.6571 17.7299 11.5286 17.7299 11.4286C17.7299 11.3286 17.6942 11.2 17.6442 11.1286C17.5943 11.0643 17.4729 10.9786 17.3587 10.9357C17.2231 10.8786 15.2674 10.8571 10.8992 10.8571C6.03127 10.8571 4.60374 10.8786 4.47526 10.95C4.38961 11 4.26113 11.1286 4.18976 11.2357ZM4.18976 14.0929C4.08269 14.2714 4.07556 14.3 4.17548 14.4786C4.23972 14.5929 4.3682 14.7214 4.46099 14.7643C4.5966 14.8357 5.72435 14.8571 9.18612 14.8571C12.3195 14.8571 13.8042 14.8357 13.9327 14.7786C14.0469 14.7357 14.1682 14.65 14.2182 14.5857C14.2681 14.5143 14.3038 14.3857 14.3038 14.2857C14.3038 14.1857 14.2681 14.0571 14.2182 13.9857C14.1682 13.9214 14.0469 13.8357 13.9327 13.7929C13.8042 13.7357 12.3195 13.7143 9.18612 13.7143C5.68153 13.7143 4.60374 13.7357 4.47526 13.8071C4.38961 13.8571 4.26113 13.9857 4.18976 14.0929ZM4.18976 16.95C4.08269 17.1286 4.07556 17.1571 4.17548 17.3357C4.23972 17.45 4.3682 17.5786 4.46099 17.6214C4.5966 17.6929 5.48881 17.7143 8.04409 17.7143C10.3496 17.7143 11.5201 17.6857 11.6486 17.6357C11.7628 17.5929 11.8841 17.5071 11.9341 17.4429C11.9841 17.3714 12.0269 17.25 12.0269 17.1571C12.0269 17.0714 11.9912 16.9357 11.9555 16.8571C11.9127 16.7786 11.7771 16.6786 11.6486 16.6429C11.5059 16.6 10.1354 16.5714 8.02982 16.5714C5.45312 16.5714 4.60374 16.5929 4.47526 16.6643C4.38961 16.7143 4.26113 16.8429 4.18976 16.95ZM4.18976 19.8071C4.08269 19.9857 4.07556 20.0143 4.17548 20.1929C4.23972 20.3071 4.3682 20.4357 4.46099 20.4857C4.5966 20.55 5.25327 20.5643 7.19471 20.5571L9.75713 20.5357C10.0212 20.2286 10.0997 20.0786 10.0997 20C10.0997 19.9214 10.0212 19.7714 9.92843 19.6571L9.75713 19.4643C5.23186 19.4286 4.60374 19.45 4.47526 19.5214C4.38961 19.5714 4.26113 19.7 4.18976 19.8071ZM13.8613 27.0214C13.6043 27.3357 13.4758 27.4286 13.326 27.4286C13.2189 27.4357 13.069 27.3643 12.9905 27.2857C12.8977 27.1929 12.7621 27.1357 12.5908 27.1429C12.448 27.1429 12.291 27.1929 12.2196 27.2643C12.1482 27.3357 12.0911 27.4929 12.0769 27.6214C12.0697 27.7929 12.1197 27.9071 12.2767 28.0714C12.3909 28.1929 12.5979 28.3357 12.7193 28.3929C12.8477 28.45 13.1047 28.5 13.2903 28.5071C13.483 28.5143 13.7614 28.4643 13.9184 28.3929C14.0754 28.3286 14.3966 28.0714 14.6321 27.8143C14.8677 27.5643 15.1104 27.3643 15.1675 27.3643C15.2246 27.3643 15.4672 27.5643 15.7028 27.8143C15.9383 28.0714 16.2381 28.3214 16.3595 28.3857C16.4879 28.45 16.752 28.5 16.9519 28.5C17.1446 28.5 17.4301 28.45 17.5729 28.3929C17.7227 28.3286 18.0368 28.0714 18.2723 27.8214C18.5079 27.5643 18.7506 27.3571 18.8077 27.3571C18.8648 27.3643 19.1075 27.5643 19.343 27.8143C19.5785 28.0714 19.8855 28.3214 20.0211 28.3786C20.1567 28.4357 20.3494 28.4929 20.4493 28.5C20.5493 28.5071 20.6849 28.5143 20.7491 28.5071C20.8205 28.5 20.9418 28.4286 21.0203 28.3357C21.0989 28.25 21.1631 28.1 21.1631 28C21.1631 27.9 21.1203 27.7643 21.0703 27.7C21.0203 27.6357 20.8419 27.5286 20.6635 27.4643C20.4351 27.3857 20.2709 27.25 20.0853 27.0143C19.9426 26.8286 19.6927 26.6071 19.5143 26.5214C19.3002 26.4143 19.0718 26.3571 18.8077 26.3571C18.565 26.3571 18.3009 26.4143 18.1296 26.4929C17.9726 26.5714 17.7156 26.7857 17.5586 26.9786C17.4087 27.1643 17.2445 27.3429 17.2017 27.3714C17.166 27.4 17.0447 27.4286 16.9305 27.4286C16.7806 27.4286 16.6806 27.35 16.4808 27.0857C16.338 26.9 16.1096 26.6714 15.974 26.5714C15.7742 26.4357 15.6171 26.3857 15.246 26.3714C14.9034 26.3571 14.6964 26.3857 14.4894 26.4857C14.3324 26.5571 14.054 26.8 13.8613 27.0214ZM28.9788 5.23571C29.1501 5.25 29.3714 5.33571 29.5284 5.45C29.714 5.58571 29.8353 5.75 29.921 5.97857C30.0209 6.27143 30.0209 6.36429 29.9495 6.60714C29.871 6.85 28.4364 8.31429 11.9912 24.7786L10.7421 25.2786C10.0569 25.55 9.47876 25.7571 9.45735 25.7429C9.43593 25.7286 9.6572 25.1429 10.4566 23.1786L19.3287 14.3071C24.9461 8.68571 28.2865 5.39286 28.4435 5.32143C28.5791 5.26429 28.8218 5.22143 28.9788 5.23571Z" fill="url(#paint0_linear_2104_1217)"/>
<path d="M0.0142857 23.75C0.00714286 26.7786 0 24.3286 0 18.3214C0 12.3071 0.00714286 9.83571 0.0142857 12.8214C0.0285714 15.8071 0.0285714 20.7214 0.0142857 23.75Z" fill="black" fill-opacity="0.28"/>
<path fill-rule="evenodd" clip-rule="evenodd" d="M19.1431 12.7858C19.1574 12.7858 19.1646 12.7929 19.1646 12.8072C19.1646 12.8143 18.9504 13.0286 18.201 13.7501L18.6649 13.2715C18.9147 13.0001 19.136 12.7858 19.1431 12.7858ZM23.9254 14.5001C23.9396 14.5001 23.9468 14.5072 23.9468 14.5215C23.9468 14.5286 21.42 17.0572 12.705 25.7501L18.308 20.1286C21.3915 17.0286 23.9182 14.5001 23.9254 14.5001ZM16.5022 20.2858C16.5165 20.2858 16.5236 20.2929 16.5236 20.3072C16.5236 20.3143 15.8741 20.9643 13.6329 23.1786L15.0604 21.7358C15.8455 20.9358 16.4951 20.2858 16.5022 20.2858ZM13.5758 23.2143C13.59 23.2143 13.5972 23.2215 13.5972 23.2358C13.5972 23.2429 13.2332 23.6001 11.9912 24.8215L12.7764 24.0215C13.2046 23.5786 13.5686 23.2143 13.5758 23.2143Z" fill="black" fill-opacity="0.67"/>
<path d="M23.9968 6.71428C23.9896 7.4 23.9825 6.80714 23.9825 5.39285C23.9825 3.97857 23.9896 3.41428 23.9968 4.14285C24.0111 4.87142 24.0111 6.02857 23.9968 6.71428Z" fill="black" fill-opacity="0.71"/>
<path d="M19.1289 12.8214L19.6285 12.3071C19.8998 12.0214 20.1353 11.7857 20.1425 11.7857C20.1567 11.7857 20.1639 11.7929 20.1639 11.8071C20.1639 11.8143 19.9355 12.05 19.1289 12.8214Z" fill="black" fill-opacity="0.71"/>
<path d="M23.9968 25.4643C23.9896 27.5071 23.9825 25.8643 23.9825 21.8214C23.9825 17.7786 23.9896 16.1071 23.9968 18.1071C24.0111 20.1143 24.0111 23.4214 23.9968 25.4643Z" fill="black" fill-opacity="0.71"/>
<path d="M16.488 20.3214L22.8762 13.9143C26.388 10.3857 29.2716 7.5 29.2787 7.5C29.293 7.5 29.3001 7.50714 29.3001 7.51429C29.3001 7.52857 26.4165 10.4143 16.488 20.3214Z" fill="black" fill-opacity="0.62"/>
<path d="M10.3496 23.25L16.8806 16.7C20.4708 13.0928 23.4186 10.1428 23.4258 10.1428C23.4401 10.1428 23.4472 10.15 23.4472 10.1571C23.4472 10.1714 20.4993 13.1214 10.3496 23.25Z" fill="black" fill-opacity="0.58"/>
<path d="M20.1995 11.8214L22.0553 9.94998V9.94284C23.0759 8.91427 23.9182 8.07141 23.9253 8.07141C23.9396 8.07141 23.9467 8.07855 23.9467 8.0857C23.9467 8.09998 23.1045 8.94284 20.1995 11.8214Z" fill="black" fill-opacity="0.07"/>
<path d="M23.4115 10.1786L25.7312 7.84286V7.83571C27.0089 6.55 28.0581 5.5 28.0652 5.5C28.0795 5.5 28.0866 5.50714 28.0866 5.51429C28.0866 5.52857 27.0374 6.57857 23.4115 10.1786Z" fill="black" fill-opacity="0.53"/>
<path d="M16.0954 15.8643C16.074 15.8643 16.3024 15.6214 16.595 15.3286C16.8877 15.0357 17.1446 14.7929 17.1589 14.7929C17.1803 14.7929 16.959 15.0357 16.6664 15.3286C16.3738 15.6214 16.1168 15.8643 16.0954 15.8643Z" fill="black" fill-opacity="0.53"/>
<path d="M21.0562 10.8929L22.3052 9.62861V9.62146C22.9905 8.92861 23.5615 8.35718 23.5686 8.35718C23.5829 8.35718 23.59 8.36432 23.59 8.37146C23.59 8.38575 23.019 8.95718 21.0562 10.8929Z" fill="black" fill-opacity="0.83"/>
<path d="M8.00843 3.8928C8.00128 4.6428 7.99414 4.05709 7.99414 2.60708C7.99414 1.14994 8.00128 0.542799 8.00843 1.24994C8.02271 1.95708 8.02271 3.1428 8.00843 3.8928Z" fill="black" fill-opacity="0.37"/>
<path d="M20.1282 11.8215L20.5921 11.3429V11.3357C20.8419 11.0715 21.0632 10.8572 21.0703 10.8572C21.0846 10.8572 21.0918 10.8643 21.0918 10.8715C21.0918 10.8857 20.8776 11.1 20.1282 11.8215Z" fill="black" fill-opacity="0.75"/>
<path d="M14.7034 17.25L15.3815 16.5572V16.55C15.7527 16.1715 16.0667 15.8572 16.0739 15.8572C16.0882 15.8572 16.0953 15.8643 16.0953 15.8715C16.0953 15.8857 15.7812 16.2 14.7034 17.25Z" fill="black" fill-opacity="0.47"/>
<path d="M11.8484 20.1143L12.6692 19.2715C13.1189 18.8143 13.4972 18.4357 13.5043 18.4357C13.5186 18.4357 13.5257 18.4429 13.5257 18.45C13.5257 18.4643 13.1474 18.8429 11.8484 20.1143Z" fill="black" fill-opacity="0.47"/>
<path d="M13.5258 18.4286C13.5044 18.4286 13.7328 18.1857 14.0254 17.8929C14.3181 17.6 14.575 17.3572 14.5893 17.3572C14.6107 17.3572 14.3895 17.6 14.0968 17.8929C13.8042 18.1857 13.5472 18.4286 13.5258 18.4286Z" fill="black" fill-opacity="0.43"/>
<path d="M0.463867 6.25002L3.61157 3.33573L6.75928 0.428589L6.78783 2.90716C6.81638 5.2143 6.80924 5.4143 6.6879 5.64287C6.60939 5.77859 6.44522 5.9643 6.3096 6.05716C6.17399 6.14287 5.9099 6.23573 5.71004 6.25716C5.51732 6.27859 4.25396 6.28573 0.463867 6.25002Z" fill="url(#paint1_linear_2104_1217)"/>
<path d="M6.8664 4.03569C6.85926 4.69998 6.84497 4.14284 6.84497 2.78569C6.84497 1.42855 6.85926 0.885694 6.8664 1.57141C6.88068 2.25712 6.88068 3.37141 6.8664 4.03569Z" fill="black" fill-opacity="0.62"/>
<defs>
<linearGradient id="paint0_linear_2104_1217" x1="15.0178" y1="0" x2="15.0178" y2="32" gradientUnits="userSpaceOnUse">
<stop stop-color="#48AAF0"/>
<stop offset="1" stop-color="#15B4DB"/>
</linearGradient>
<linearGradient id="paint1_linear_2104_1217" x1="3.63282" y1="0.428589" x2="3.63282" y2="6.27502" gradientUnits="userSpaceOnUse">
<stop stop-color="#48AAF0"/>
<stop offset="1" stop-color="#15B4DB"/>
</linearGradient>
</defs>
</svg>
