<svg width="32" height="32" viewBox="0 0 32 32" fill="none" xmlns="http://www.w3.org/2000/svg">
<path d="M5.21341 22.9067C4.96008 22.9067 4.70675 22.8134 4.50675 22.6134C2.68008 20.7734 1.66675 18.3467 1.66675 15.7734C1.66675 10.4267 6.00008 6.08003 11.3334 6.08003L19.4267 6.10669L17.9734 4.72003C17.5734 4.33336 17.5601 3.70669 17.9467 3.30669C18.3334 2.90669 18.9601 2.89336 19.3601 3.28003L22.6134 6.40003C22.9067 6.68003 23.0001 7.12003 22.8534 7.49336C22.7067 7.86669 22.3334 8.12003 21.9201 8.12003L11.3334 8.09336C7.10675 8.09336 3.66675 11.5467 3.66675 15.7867C3.66675 17.8267 4.46675 19.76 5.92008 21.2134C6.30675 21.6 6.30675 22.24 5.92008 22.6267C5.72008 22.8134 5.46675 22.9067 5.21341 22.9067Z" fill="white"/>
<path d="M13.3334 29C13.0801 29 12.8401 28.9067 12.6401 28.72L9.38678 25.6C9.09344 25.32 9.00011 24.88 9.14678 24.5067C9.29345 24.1334 9.66678 23.88 10.0801 23.88L20.6801 23.9067C24.9068 23.9067 28.3468 20.4534 28.3468 16.2134C28.3468 14.1734 27.5468 12.24 26.0934 10.7867C25.7068 10.4 25.7068 9.76004 26.0934 9.37337C26.4801 8.98671 27.1201 8.98671 27.5068 9.37337C29.3334 11.2134 30.3468 13.64 30.3468 16.2134C30.3468 21.56 26.0134 25.9067 20.6801 25.9067L12.5868 25.88L14.0401 27.2667C14.4401 27.6534 14.4534 28.28 14.0668 28.68C13.8534 28.8934 13.6001 29 13.3334 29Z" fill="white"/>
<path d="M11.9999 20.6667H19.9999C22.5599 20.6667 24.6666 18.5734 24.6666 16C24.6666 13.44 22.5733 11.3334 19.9999 11.3334H11.9999C9.43992 11.3334 7.33325 13.4267 7.33325 16C7.33325 18.5734 9.42659 20.6667 11.9999 20.6667Z" fill="white"/>
</svg>
