<svg width="36" height="33" viewBox="0 0 36 33" fill="none" xmlns="http://www.w3.org/2000/svg">
<path fill-rule="evenodd" clip-rule="evenodd" d="M28.5584 0.00842865C29.1867 0.0234129 29.7667 0.0908421 30.2098 0.195732C30.5884 0.285638 31.2249 0.502909 31.6196 0.675228C32.0143 0.85504 32.6508 1.21466 33.0213 1.47689C33.4 1.73911 33.8833 2.15867 34.1089 2.40591C34.3344 2.65315 34.6889 3.11017 34.8984 3.41735C35.1078 3.72453 35.4059 4.30142 35.5589 4.69101C35.704 5.0806 35.8731 5.64251 35.9295 5.92721C35.994 6.26436 36.0181 6.81129 35.9859 7.4631C35.9537 8.25727 35.9053 8.61689 35.7362 9.13385C35.6234 9.49347 35.3978 10.0329 35.2367 10.3251C35.0756 10.6248 34.7936 11.0743 34.6003 11.3215C34.415 11.5688 33.9558 12.0408 33.5772 12.3704C33.1986 12.7001 32.6427 13.1047 32.3366 13.277C32.0305 13.4418 31.5793 13.6591 31.3376 13.749C31.096 13.8464 30.6609 13.9887 30.3709 14.0637C30.0809 14.1386 29.517 14.236 29.1223 14.2809C28.6147 14.3409 28.1717 14.3409 27.6319 14.2884C27.213 14.2435 26.5927 14.1386 26.2624 14.0562C25.9321 13.9663 25.3199 13.749 24.1679 13.232L22.9434 13.3444C22.2667 13.4044 21.6786 13.4568 21.6303 13.4568C21.5739 13.4568 21.59 13.0223 21.7753 10.9469L21.445 10.3476C21.2677 10.0179 21.0502 9.53093 20.9616 9.26121C20.873 8.9915 20.7602 8.50451 20.7038 8.17485C20.6394 7.79276 20.6152 7.2758 20.6474 6.75135C20.6716 6.28684 20.7683 5.66499 20.865 5.32784C20.9616 4.99819 21.163 4.47374 21.3241 4.16656C21.4772 3.85939 21.7592 3.38738 21.9525 3.11766C22.1458 2.84795 22.5889 2.37594 22.9353 2.06127C23.2817 1.7541 23.7973 1.34952 24.0873 1.16971C24.3773 0.989898 24.8285 0.75015 25.0943 0.637768C25.3602 0.532878 25.7791 0.383035 26.0207 0.308114C26.2624 0.233193 26.7135 0.128303 27.0277 0.0758579C27.3822 0.00842866 27.9542 -0.0140478 28.5584 0.00842865ZM22.9514 4.96073C22.9595 5.11057 23.0239 5.2754 23.1206 5.3653C23.2817 5.51515 23.3865 5.51515 28.3167 5.51515H33.3597C33.7383 5.14803 33.7705 5.05813 33.7222 4.87832C33.698 4.75095 33.5933 4.59361 33.4886 4.51869C33.3194 4.39133 33.0052 4.38383 28.3489 4.39133C23.459 4.39133 23.3865 4.39133 23.1689 4.54866C22.9917 4.66854 22.9434 4.75844 22.9514 4.96073ZM22.9514 7.13345C22.9595 7.28329 23.0239 7.44812 23.1206 7.53802C23.2817 7.68787 23.3865 7.68787 28.357 7.68787H33.4322C33.69 7.3657 33.7625 7.23084 33.7544 7.18589C33.7544 7.13345 33.7141 7.01357 33.6739 6.92367C33.6255 6.82627 33.5047 6.7064 33.3919 6.66144C33.2388 6.58652 32.0466 6.56405 28.2925 6.56405C23.4509 6.56405 23.3865 6.56404 23.1689 6.72138C22.9917 6.84125 22.9434 6.93116 22.9514 7.13345ZM23.0964 8.95404C23.0159 9.02146 22.9514 9.1788 22.9514 9.33613C22.9514 9.50845 23.0159 9.6508 23.1287 9.7482C23.2978 9.89804 23.4106 9.89804 28.3328 9.89804H33.3677C33.6658 9.57588 33.7544 9.41855 33.7544 9.33613C33.7544 9.25372 33.6658 9.09639 33.5611 8.984L33.3677 8.77422C25.7066 8.75175 23.4267 8.76673 23.3623 8.78921C23.2978 8.81169 23.177 8.88661 23.0964 8.95404ZM10.1506 22.6796C10.6581 22.6796 11.4154 22.7246 11.8182 22.7845C12.229 22.8444 12.8654 22.9868 13.2279 23.0917C13.5985 23.2041 14.1463 23.3989 14.4605 23.5262C14.7666 23.6611 15.3144 23.9383 15.6689 24.1481C16.0233 24.3579 16.3536 24.5751 16.41 24.6351C16.4906 24.71 16.402 24.8673 15.9831 25.4068C15.7011 25.7814 15.2097 26.5531 14.9036 27.1299C14.5974 27.7068 14.2349 28.486 14.106 28.8531C13.9771 29.2277 13.7919 29.902 13.6952 30.3516C13.5985 30.8086 13.4938 31.5728 13.4132 32.9364H7.04905L6.9846 32.0598C6.95238 31.5728 6.83154 30.7711 6.72681 30.2766C6.62209 29.7822 6.42069 29.0779 6.28374 28.7033C6.13873 28.3362 5.91317 27.7968 5.76816 27.5046C5.62315 27.2124 5.35731 26.7479 5.18008 26.4557C4.99479 26.1635 4.64839 25.669 4.39865 25.3543C4.02003 24.8598 3.96363 24.7475 4.04419 24.6501C4.10058 24.5826 4.32615 24.4178 4.55172 24.2829C4.76923 24.1481 5.22841 23.9008 5.55871 23.736C5.889 23.5637 6.54153 23.309 7.00877 23.1666C7.47601 23.0243 8.16077 22.8519 8.5394 22.792C8.91802 22.7321 9.64306 22.6871 10.1506 22.6796ZM8.60384 25.0172L8.61996 25.5941C7.43573 25.5941 7.3874 25.609 7.16183 25.8188L6.92821 26.0436C6.92821 27.7818 6.96044 28.2088 7.02488 28.3287C7.08127 28.4336 7.21017 28.546 7.30684 28.5909C7.41157 28.6284 7.74186 28.6658 8.05604 28.6658H8.61996C8.6119 31.3555 8.61995 31.408 8.79718 31.5653C8.97441 31.7226 9.04692 31.7376 10.2472 31.7376H11.5201C11.8343 31.3405 11.8504 31.2207 11.8423 29.9994V28.6658C13.0265 28.6658 13.0749 28.6509 13.3004 28.4411L13.5341 28.2163C13.4938 26.0361 13.4857 25.9612 13.3085 25.8038C13.1554 25.654 13.0265 25.6315 12.4868 25.6165L11.8423 25.5941C11.8504 24.6201 11.8182 24.4628 11.6812 24.3054L11.5201 24.0956C9.02275 24.0956 8.9583 24.1031 8.78107 24.268C8.6119 24.4253 8.58773 24.5002 8.60384 25.0172ZM2.8922 25.624C2.91636 25.639 3.1661 25.9462 3.43194 26.3133C3.70584 26.6804 4.09253 27.2873 4.29393 27.6544C4.49532 28.029 4.75311 28.5535 4.8659 28.8382C4.98674 29.1154 5.14785 29.6024 5.24452 29.9245C5.33314 30.2392 5.45398 30.8535 5.51843 31.2881C5.58287 31.7226 5.63927 32.2696 5.63927 32.9364H0.00012207L0.0484576 32.0598C0.0726253 31.5728 0.145129 30.876 0.209576 30.5014C0.274023 30.1343 0.435142 29.5349 0.564036 29.1753C0.700987 28.8082 0.934609 28.2688 1.09573 27.9766C1.25685 27.6769 1.51463 27.2423 1.67575 27.0176C1.82882 26.7928 2.15911 26.3807 2.40079 26.1035C2.64246 25.8263 2.85997 25.609 2.8922 25.624ZM17.5701 25.5941L17.9407 25.9837C18.1501 26.2009 18.5207 26.6654 18.7624 27.0176C19.004 27.3697 19.3182 27.8867 19.4632 28.1789C19.6082 28.471 19.8177 28.9805 19.9305 29.3251C20.0432 29.6623 20.1963 30.2317 20.2608 30.5988C20.3252 30.9584 20.3816 31.6327 20.3816 32.9364H14.823V32.4119C14.823 32.1197 14.8633 31.6252 14.9116 31.3106C14.96 30.9884 15.0889 30.389 15.2016 29.977C15.3064 29.5649 15.5239 28.943 15.6769 28.5909C15.83 28.2388 16.1361 27.6544 16.3617 27.2798C16.5792 26.9127 16.9417 26.3807 17.1673 26.096L17.5701 25.5941Z" fill="url(#paint0_linear_2104_1238)"/>
<path d="M8.60384 25.0172L8.61996 25.5941C7.43573 25.5941 7.3874 25.609 7.16183 25.8188L6.92821 26.0436C6.92821 27.7818 6.96044 28.2088 7.02488 28.3287C7.08127 28.4336 7.21017 28.546 7.30684 28.5909C7.41157 28.6284 7.74186 28.6658 8.05604 28.6658H8.61996C8.6119 31.3555 8.61995 31.408 8.79718 31.5653C8.97441 31.7226 9.04692 31.7376 10.2472 31.7376H11.5201C11.8343 31.3405 11.8504 31.2207 11.8423 29.9994V28.6658C13.0265 28.6658 13.0749 28.6509 13.3004 28.4411L13.5341 28.2163C13.4938 26.0361 13.4857 25.9612 13.3085 25.8038C13.1554 25.654 13.0265 25.6315 12.4868 25.6165L11.8423 25.5941C11.8504 24.6201 11.8182 24.4628 11.6812 24.3054L11.5201 24.0956C9.02275 24.0956 8.9583 24.1031 8.78107 24.268C8.6119 24.4253 8.58773 24.5002 8.60384 25.0172Z" fill="url(#paint1_linear_2104_1238)"/>
<path d="M4.22944 32.9886C3.43191 33.0034 2.14296 33.0034 1.36959 32.9886C0.596224 32.9812 1.24875 32.9738 2.81966 32.9738C4.39056 32.9738 5.02698 32.9812 4.22944 32.9886Z" fill="black" fill-opacity="0.54"/>
<path d="M11.8423 32.9886C10.932 33.0034 9.46579 33.0034 8.57964 32.9886C7.69349 32.9812 8.43463 32.9738 10.2311 32.9738C12.0276 32.9738 12.7526 32.9812 11.8423 32.9886Z" fill="black" fill-opacity="0.54"/>
<path d="M18.9718 32.9886C18.1742 33.0034 16.9014 33.0034 16.1522 32.9886C15.403 32.9812 16.0475 32.9664 17.6023 32.9738C19.1571 32.9738 19.7693 32.9812 18.9718 32.9886Z" fill="black" fill-opacity="0.54"/>
<path d="M7.97553 6.82632C8.30583 6.72143 8.74085 6.60905 8.94224 6.57158C9.14364 6.53412 9.69144 6.50416 10.1748 6.49666C10.6743 6.48917 11.2785 6.53412 11.6007 6.60155C11.9068 6.66149 12.4466 6.81133 12.793 6.9387C13.1313 7.05857 13.6469 7.30581 13.9369 7.47813C14.2269 7.65794 14.6942 8.00258 14.9761 8.24982C15.2581 8.49706 15.6448 8.90164 15.8381 9.14888C16.0234 9.39612 16.3376 9.90558 16.5229 10.2727C16.7162 10.6548 16.9257 11.2242 16.9982 11.5838C17.0787 11.936 17.1351 12.2281 17.1271 12.2356C17.1271 12.2506 16.8451 12.1907 16.5148 12.1158C16.1845 12.0408 15.6931 11.8835 15.4273 11.7711C15.1614 11.6662 14.6861 11.419 14.38 11.2242C14.0739 11.0294 13.5099 10.6024 13.1394 10.2727C12.7688 9.94304 12.2613 9.40361 12.0035 9.07396C11.7376 8.73681 11.4557 8.45211 11.351 8.42214C11.2462 8.39217 11.0932 8.3622 11.0207 8.3622C10.9401 8.3622 10.5051 8.70684 10.054 9.13389C9.58672 9.56844 8.92613 10.0929 8.53945 10.3251C8.16082 10.5574 7.50829 10.902 7.08938 11.0818C6.67047 11.2692 6.03406 11.5089 5.6796 11.6213C5.32514 11.7262 4.67261 11.8985 4.22953 12.0034C3.78646 12.1008 3.39977 12.1832 3.36755 12.1832C3.32727 12.1832 3.35144 11.9584 3.41588 11.6812C3.48033 11.3965 3.64145 10.902 3.7784 10.5724C3.91535 10.2427 4.20536 9.71828 4.42287 9.4111C4.64038 9.10393 5.10763 8.58697 5.47014 8.2723C5.8246 7.95014 6.40463 7.53807 6.74298 7.35077C7.08938 7.16346 7.64524 6.93121 7.97553 6.82632Z" fill="url(#paint2_linear_2104_1238)"/>
<path d="M9.38532 11.3591C9.73172 11.1343 10.2392 10.7522 10.5131 10.5199C10.779 10.2802 11.0126 10.0929 11.0368 10.0854C11.061 10.0854 11.2382 10.2727 11.4396 10.505C11.641 10.7447 12.076 11.1568 12.4063 11.4265C12.7366 11.7037 13.2441 12.0783 13.5341 12.2581C13.8241 12.4379 14.388 12.7301 14.7828 12.9024C15.1775 13.0748 15.7414 13.2696 16.0315 13.3295L16.0315 13.3295C16.3215 13.3894 16.684 13.4643 17.119 13.5318L17.0626 13.9289C17.0304 14.1386 16.9257 14.5582 16.829 14.8429C16.7404 15.1276 16.5148 15.6221 16.3376 15.9293C16.1603 16.2364 15.8542 16.6785 15.6689 16.9032C15.4756 17.128 15.1856 17.4352 15.0084 17.585C14.8392 17.7274 14.5572 17.9521 14.38 18.0795C14.2028 18.2069 13.8241 18.4316 13.5341 18.574C13.2441 18.7238 12.7366 18.9336 12.4063 19.0385C12.076 19.1434 11.5121 19.2633 11.1576 19.3082C10.8032 19.3607 10.1909 19.3756 9.78812 19.3532C9.39337 19.3307 8.82946 19.2483 8.53945 19.1808C8.24943 19.1134 7.7258 18.9336 7.37134 18.7838C7.01688 18.6339 6.56575 18.4017 6.36435 18.2743C6.16295 18.1544 5.76821 17.8472 5.48625 17.6075C5.2043 17.3677 4.81761 16.9632 4.63233 16.7159C4.43898 16.4687 4.15703 16.0192 3.99591 15.727C3.83479 15.4273 3.63339 14.9328 3.55283 14.6406C3.46422 14.3409 3.3756 13.9588 3.29504 13.4943L4.18925 13.3295C4.67261 13.2321 5.51848 13.0223 6.06628 12.8575C6.60603 12.6852 7.42773 12.378 7.89497 12.1607C8.36222 11.9434 9.03086 11.5838 9.38532 11.3591Z" fill="url(#paint3_linear_2104_1238)"/>
<path d="M30.7739 6.54138C29.4688 6.55615 27.2937 6.55615 25.9403 6.54138C24.5869 6.534 25.6584 6.52661 28.3168 6.52661C30.9753 6.52661 32.0789 6.534 30.7739 6.54138Z" fill="black" fill-opacity="0.8"/>
<path d="M30.7736 7.74033C29.4202 7.75531 27.229 7.75531 25.8998 7.74033C24.5705 7.73283 25.6742 7.72534 28.3568 7.72534C31.0394 7.72534 32.127 7.73283 30.7736 7.74033Z" fill="black" fill-opacity="0.21"/>
<path d="M10.7546 31.7901C10.4485 31.8051 9.95711 31.8051 9.6671 31.7901C9.37708 31.7751 9.63487 31.7676 10.231 31.7676C10.8271 31.7676 11.0608 31.7751 10.7546 31.7901Z" fill="black" fill-opacity="0.21"/>
<path d="M30.7736 5.56738C29.4202 5.58215 27.229 5.58215 25.8998 5.56738C24.5705 5.56 25.6742 5.55261 28.3568 5.55261C31.0395 5.55261 32.127 5.56 30.7736 5.56738Z" fill="black" fill-opacity="0.35"/>
<path d="M10.7548 24.0731C10.4487 24.0881 9.95727 24.0881 9.66726 24.0731C9.37725 24.0582 9.63504 24.0507 10.2312 24.0507C10.8273 24.0507 11.0609 24.0582 10.7548 24.0731Z" fill="black" fill-opacity="0.28"/>
<path d="M8.59582 25.3318C8.57971 25.4966 8.5636 25.3992 8.5636 25.107C8.5636 24.8149 8.57971 24.6875 8.59582 24.8074C8.61193 24.9272 8.61193 25.167 8.59582 25.3318Z" fill="black" fill-opacity="0.28"/>
<path d="M8.59582 30.5763C8.58777 30.9434 8.57165 30.6587 8.57165 29.9395C8.57165 29.2202 8.58777 28.9131 8.59582 29.2652C8.61193 29.6173 8.61193 30.2092 8.59582 30.5763Z" fill="black" fill-opacity="0.28"/>
<path d="M30.7736 4.36887C29.4686 4.38385 27.2935 4.38385 25.9401 4.36887C24.5867 4.36137 25.6581 4.35388 28.3166 4.35388C30.975 4.35388 32.0787 4.36137 30.7736 4.36887Z" fill="black" fill-opacity="0.66"/>
<path d="M6.90393 27.5795C6.88782 27.8717 6.87976 27.6619 6.87976 27.13C6.87976 26.598 6.88782 26.3583 6.90393 26.6055C6.92004 26.8528 6.92004 27.2873 6.90393 27.5795Z" fill="black" fill-opacity="0.66"/>
<path d="M8.25709 25.5712C8.07986 25.5859 7.83013 25.5859 7.69318 25.5712C7.55623 25.5564 7.70929 25.5416 8.01541 25.5416C8.32154 25.5416 8.43432 25.5564 8.25709 25.5712Z" fill="black" fill-opacity="0.94"/>
<path d="M13.5905 27.5795C13.5743 27.8717 13.5663 27.6619 13.5663 27.13C13.5663 26.598 13.5743 26.3583 13.5905 26.6055C13.6066 26.8528 13.6066 27.2873 13.5905 27.5795Z" fill="black" fill-opacity="0.86"/>
<path d="M11.8986 30.6512C11.8905 30.9808 11.8744 30.6811 11.8744 29.9769C11.8744 29.2726 11.8905 29.0104 11.8986 29.3775C11.9147 29.7446 11.9147 30.3215 11.8986 30.6512Z" fill="black" fill-opacity="0.51"/>
<path d="M9.66723 26.6505C9.84446 26.5231 9.86863 26.4407 9.90085 25.9013L9.92502 25.2944H10.5534V25.8563C10.5534 26.3583 10.5775 26.4407 10.7548 26.6056C10.932 26.7704 11.0206 26.7929 12.2451 26.7929V27.4672H11.6006C11.0126 27.4672 10.932 27.4821 10.7548 27.6545C10.5534 27.8418 10.5534 27.8567 10.5534 30.5389H9.90891L9.88474 29.1454L9.88472 29.1436C9.86863 27.7593 9.86854 27.7518 9.66723 27.6095C9.50611 27.4896 9.34499 27.4597 8.21716 27.4672V26.7929H8.83747C9.34499 26.8004 9.50611 26.7704 9.66723 26.6505Z" fill="url(#paint4_linear_2104_1238)"/>
<path d="M8.98243 26.7699C8.8052 26.7847 8.55547 26.7847 8.41852 26.7699C8.28157 26.7551 8.43463 26.7404 8.74075 26.7404C9.04688 26.7404 9.15966 26.7551 8.98243 26.7699Z" fill="black" fill-opacity="0.07"/>
<path d="M11.9631 26.7699C11.7859 26.7847 11.5362 26.7847 11.3992 26.7699C11.2623 26.7551 11.4153 26.7404 11.7214 26.7404C12.0276 26.7404 12.1404 26.7551 11.9631 26.7699Z" fill="black" fill-opacity="0.07"/>
<path d="M12.2451 27.4671L12.2612 27.115V27.1075C12.2693 26.7628 12.2693 26.7628 12.3015 27.055C12.3176 27.2199 12.3095 27.3997 12.2854 27.4446C12.2612 27.5121 12.0759 27.5345 11.1576 27.5121L12.2451 27.4671Z" fill="black" fill-opacity="0.14"/>
<path d="M8.98245 27.527C8.80522 27.542 8.55549 27.542 8.41854 27.527C8.28965 27.5121 8.43465 27.4971 8.74078 27.4971C9.05496 27.4971 9.15968 27.5121 8.98245 27.527Z" fill="black" fill-opacity="0.14"/>
<path d="M9.88489 29.977C9.87683 30.3066 9.86072 30.0069 9.86072 29.3027C9.86072 28.5984 9.87683 28.3362 9.88489 28.7033C9.901 29.0704 9.901 29.6473 9.88489 29.977Z" fill="black" fill-opacity="0.69"/>
<path d="M10.61 29.977C10.6019 30.3066 10.5858 30.0069 10.5858 29.3027C10.5858 28.5984 10.6019 28.3362 10.61 28.7033C10.6261 29.0704 10.6261 29.6473 10.61 29.977Z" fill="black" fill-opacity="0.51"/>
<defs>
<linearGradient id="paint0_linear_2104_1238" x1="18.0001" y1="0" x2="18.0001" y2="32.9364" gradientUnits="userSpaceOnUse">
<stop stop-color="#40D880"/>
<stop offset="1" stop-color="#14BC81"/>
</linearGradient>
<linearGradient id="paint1_linear_2104_1238" x1="18.0001" y1="0" x2="18.0001" y2="32.9364" gradientUnits="userSpaceOnUse">
<stop stop-color="#40D880"/>
<stop offset="1" stop-color="#14BC81"/>
</linearGradient>
<linearGradient id="paint2_linear_2104_1238" x1="10.2114" y1="6.49585" x2="10.2114" y2="19.3633" gradientUnits="userSpaceOnUse">
<stop stop-color="#40D880"/>
<stop offset="1" stop-color="#14BC81"/>
</linearGradient>
<linearGradient id="paint3_linear_2104_1238" x1="10.2114" y1="6.49585" x2="10.2114" y2="19.3633" gradientUnits="userSpaceOnUse">
<stop stop-color="#40D880"/>
<stop offset="1" stop-color="#14BC81"/>
</linearGradient>
<linearGradient id="paint4_linear_2104_1238" x1="10.2311" y1="25.2944" x2="10.2311" y2="30.5389" gradientUnits="userSpaceOnUse">
<stop stop-color="#40D880"/>
<stop offset="1" stop-color="#14BC81"/>
</linearGradient>
</defs>
</svg>
