<svg width="18" height="19" viewBox="0 0 18 19" fill="none" xmlns="http://www.w3.org/2000/svg">
<path d="M9.00984 7.12891C8.42585 7.12891 7.87898 7.35547 7.46491 7.76953C7.0528 8.18359 6.82429 8.73047 6.82429 9.31445C6.82429 9.89844 7.0528 10.4453 7.46491 10.8594C7.87898 11.2715 8.42585 11.5 9.00984 11.5C9.59382 11.5 10.1407 11.2715 10.5548 10.8594C10.9669 10.4453 11.1954 9.89844 11.1954 9.31445C11.1954 8.73047 10.9669 8.18359 10.5548 7.76953C10.3525 7.56574 10.1118 7.40416 9.84659 7.29418C9.58137 7.18421 9.29695 7.12803 9.00984 7.12891ZM17.0626 11.7285L15.7852 10.6367C15.8458 10.2656 15.877 9.88672 15.877 9.50977C15.877 9.13281 15.8458 8.75195 15.7852 8.38281L17.0626 7.29102C17.1591 7.20841 17.2281 7.09839 17.2606 6.97558C17.293 6.85278 17.2873 6.723 17.2442 6.60352L17.2266 6.55273C16.8751 5.56971 16.3484 4.65851 15.6719 3.86328L15.6368 3.82227C15.5547 3.72569 15.4452 3.65626 15.3228 3.62314C15.2004 3.59002 15.0709 3.59475 14.9512 3.63672L13.3653 4.20117C12.7794 3.7207 12.127 3.3418 11.42 3.07812L11.1134 1.41992C11.0902 1.295 11.0296 1.18008 10.9396 1.09043C10.8496 1.00077 10.7345 0.940619 10.6094 0.917969L10.5567 0.908203C9.54109 0.724609 8.47077 0.724609 7.45515 0.908203L7.40241 0.917969C7.27741 0.940619 7.16225 1.00077 7.07225 1.09043C6.98224 1.18008 6.92164 1.295 6.89851 1.41992L6.58991 3.08594C5.88957 3.3517 5.23716 3.72969 4.65827 4.20508L3.06062 3.63672C2.94102 3.59442 2.81138 3.58951 2.68893 3.62266C2.56648 3.6558 2.45701 3.72542 2.37507 3.82227L2.33991 3.86328C1.66469 4.65935 1.13809 5.57032 0.785227 6.55273L0.767649 6.60352C0.679758 6.84766 0.752024 7.12109 0.949289 7.29102L2.24226 8.39453C2.18171 8.76172 2.15241 9.13672 2.15241 9.50781C2.15241 9.88281 2.18171 10.2578 2.24226 10.6211L0.953195 11.7246C0.856703 11.8072 0.787642 11.9172 0.755195 12.04C0.722749 12.1628 0.728455 12.2926 0.771555 12.4121L0.789133 12.4629C1.14265 13.4453 1.66413 14.3535 2.34382 15.1523L2.37898 15.1934C2.46111 15.2899 2.57059 15.3594 2.69297 15.3925C2.81534 15.4256 2.94489 15.4209 3.06452 15.3789L4.66218 14.8105C5.24421 15.2891 5.89265 15.668 6.59382 15.9297L6.90241 17.5957C6.92555 17.7206 6.98615 17.8355 7.07615 17.9252C7.16616 18.0149 7.28131 18.075 7.40632 18.0977L7.45905 18.1074C8.48467 18.292 9.535 18.292 10.5606 18.1074L10.6134 18.0977C10.7384 18.075 10.8535 18.0149 10.9435 17.9252C11.0335 17.8355 11.0941 17.7206 11.1173 17.5957L11.4239 15.9375C12.1309 15.6719 12.7833 15.2949 13.3692 14.8145L14.9551 15.3789C15.0747 15.4212 15.2044 15.4261 15.3268 15.393C15.4493 15.3598 15.5588 15.2902 15.6407 15.1934L15.6759 15.1523C16.3555 14.3496 16.877 13.4453 17.2305 12.4629L17.2481 12.4121C17.3321 12.1699 17.2598 11.8984 17.0626 11.7285ZM9.00984 12.748C7.11335 12.748 5.57624 11.2109 5.57624 9.31445C5.57624 7.41797 7.11335 5.88086 9.00984 5.88086C10.9063 5.88086 12.4434 7.41797 12.4434 9.31445C12.4434 11.2109 10.9063 12.748 9.00984 12.748Z" fill="#112022"/>
</svg>
