<svg width="16" height="10" viewBox="0 0 16 10" fill="none" xmlns="http://www.w3.org/2000/svg">
<path d="M2 8H6C6.28333 8 6.521 8.096 6.713 8.288C6.905 8.48 7.00067 8.71733 7 9C6.99933 9.28267 6.90333 9.52033 6.712 9.713C6.52067 9.90567 6.28333 10.0013 6 10H1C0.716667 10 0.479333 9.904 0.288 9.712C0.0966668 9.52 0.000666667 9.28267 0 9V1C0 0.716667 0.0960001 0.479333 0.288 0.288C0.48 0.0966668 0.717333 0.000666667 1 0H6C6.28333 0 6.521 0.0960001 6.713 0.288C6.905 0.48 7.00067 0.717333 7 1C6.99933 1.28267 6.90333 1.52033 6.712 1.713C6.52067 1.90567 6.28333 2.00133 6 2H2V4H5C5.28333 4 5.521 4.096 5.713 4.288C5.905 4.48 6.00067 4.71733 6 5C5.99933 5.28267 5.90333 5.52033 5.712 5.713C5.52067 5.90567 5.28333 6.00133 5 6H2V8ZM11 10C10.45 10 9.97933 9.80433 9.588 9.413C9.19667 9.02167 9.00067 8.55067 9 8C9 7.71667 9.096 7.47933 9.288 7.288C9.48 7.09667 9.71733 7.00067 10 7C10.2827 6.99933 10.5203 7.09533 10.713 7.288C10.9057 7.48067 11.0013 7.718 11 8H14V6H11C10.45 6 9.97933 5.80433 9.588 5.413C9.19667 5.02167 9.00067 4.55067 9 4V2C9 1.45 9.196 0.979333 9.588 0.588C9.98 0.196666 10.4507 0.000666667 11 0H14C14.55 0 15.021 0.196 15.413 0.588C15.805 0.98 16.0007 1.45067 16 2C16 2.28333 15.904 2.521 15.712 2.713C15.52 2.905 15.2827 3.00067 15 3C14.7173 2.99933 14.48 2.90333 14.288 2.712C14.096 2.52067 14 2.28333 14 2H11V4H14C14.55 4 15.021 4.196 15.413 4.588C15.805 4.98 16.0007 5.45067 16 6V8C16 8.55 15.8043 9.021 15.413 9.413C15.0217 9.805 14.5507 10.0007 14 10H11Z" fill="#4B8E96"/>
</svg>
