<svg width="32" height="32" viewBox="0 0 32 32" fill="none" xmlns="http://www.w3.org/2000/svg">
<path d="M24.0001 22.3333C23.7868 22.3333 23.5868 22.2666 23.4001 22.1333C22.9601 21.8 22.8668 21.1733 23.2001 20.7333C25.2935 17.9466 25.2935 14.0533 23.2001 11.2666C22.8668 10.8266 22.9601 10.2 23.4001 9.86662C23.8401 9.53329 24.4668 9.62662 24.8001 10.0666C27.4135 13.56 27.4135 18.44 24.8001 21.9333C24.6001 22.2 24.3068 22.3333 24.0001 22.3333Z" fill="white"/>
<path d="M26.4401 25.6667C26.2267 25.6667 26.0267 25.6 25.8401 25.4667C25.4001 25.1334 25.3067 24.5067 25.6401 24.0667C29.2001 19.32 29.2001 12.68 25.6401 7.93337C25.3067 7.49337 25.4001 6.8667 25.8401 6.53337C26.2801 6.20004 26.9067 6.29337 27.2401 6.73337C31.3334 12.1867 31.3334 19.8134 27.2401 25.2667C27.0534 25.5334 26.7467 25.6667 26.4401 25.6667Z" fill="white"/>
<path d="M18.6934 5.04004C17.2001 4.21337 15.2934 4.42671 13.3467 5.64004L9.45342 8.08004C9.18675 8.24004 8.88008 8.33337 8.57341 8.33337H7.33341H6.66675C3.44008 8.33337 1.66675 10.1067 1.66675 13.3334V18.6667C1.66675 21.8934 3.44008 23.6667 6.66675 23.6667H7.33341H8.57341C8.88008 23.6667 9.18675 23.76 9.45342 23.92L13.3467 26.36C14.5201 27.0934 15.6667 27.4534 16.7334 27.4534C17.4267 27.4534 18.0934 27.2934 18.6934 26.96C20.1734 26.1334 21.0001 24.4134 21.0001 22.12V9.88004C21.0001 7.58671 20.1734 5.86671 18.6934 5.04004Z" fill="white"/>
</svg>
